<?xml version="1.0" encoding="UTF-8"?>
<svg xmlns="http://www.w3.org/2000/svg" version="1.1" viewBox="0 0 198 82">
  <defs>
    <style>
      .cls-1, .cls-2 {
        fill: #fb8510;
      }

      .cls-3, .cls-2, .cls-4, .cls-5 {
        stroke: #000;
        stroke-width: 2px;
      }

      .cls-6, .cls-4 {
        fill: #0cac56;
      }

      .cls-5 {
        fill: #fff;
      }
    </style>
  </defs>
  <!-- Generator: Adobe Illustrator 28.7.1, SVG Export Plug-In . SVG Version: 1.2.0 Build 142)  -->
  <g>
    <g id="Layer_1">
      <g id="Layer_1-2" data-name="Layer_1">
        <g id="Layer_1-2">
          <g id="Layer_1-2-2" data-name="Layer_1-2">
            <path class="cls-4" d="M44.5,77.4h0c.2.2.5.3.7.3h2.1c3.3,0,5.9-2.7,5.9-5.9v-20.6c0-1,.8-1.8,1.8-1.8s1.8.8,1.8,1.7l1.3,22.2c0,2.5,2.2,4.4,4.7,4.4h2.3c.5,0,1-.3,1.2-.8l-.9-.4.9.4c.6-1.4,1.4-2.6,2.4-3.7,1-1,2.2-1.9,3.6-2.4,1.3-.6,2.7-.9,4.2-.9s2.9.3,4.2.9c1.3.6,2.5,1.4,3.6,2.4,1,1,1.8,2.3,2.4,3.7.3.8,0,1.6-.4,2.2-.6.6-1.5,1.1-2.6,1.1h-46.9c-.4,0-.8-.2-1-.4-.2-.2-.2-.4,0-.7.3-.7.7-1.3,1.2-1.8s1.1-.9,1.8-1.2c.7-.3,1.4-.4,2.1-.4s1.4,0,2.1.4c.7.3,1.3.7,1.8,1.2h-.3,0Z"/>
            <path class="cls-4" d="M29.6,77.3h0c.2.2.5.3.7.3h2.1c3.3,0,5.9-2.7,5.9-5.9v-9c0-1,.8-1.9,1.9-1.9s1.8.7,1.9,1.7l1,10.8c.2,2.4,2.3,4.3,4.7,4.3h2.4c.5,0,1-.3,1.2-.8.6-1.4,1.4-2.6,2.4-3.7,1-1,2.2-1.9,3.6-2.4,1.3-.6,2.7-.9,4.2-.9s2.9.3,4.2.9,2.5,1.4,3.6,2.4l.7-.7"/>
            <path class="cls-4" d="M29.2,27.5v-3.6c0-5.9,4.7-10.6,10.6-10.6h19.3c3.7,0,6.7,3,6.7,6.7v7.5h10.4c3.1,0,5.7,2.5,5.7,5.7,0,7.2-5.8,13-12.9,13h-8.9c-1.1,0-2,.9-2,2v6.1c0,5.5-4.4,10-9.9,10h-1.1c-3.9-.2-7.4,3-7.1,7,0,1.5.3,3,.6,4.1,0,.6.3,1.1.6,1.6.3.4.8.9,1.5.9h2.2c.5,0,1-.3,1.2-.8h0c.5-1.4,1.4-2.6,2.4-3.7,1-1,2.2-1.9,3.5-2.4,1.3-.6,2.7-.9,4.2-.9s2.8.3,4.2.9c1.3.6,2.5,1.4,3.5,2.4s1.8,2.3,2.4,3.7v.2c.3.8,0,1.5-.4,2.1s-1.4,1-2.4,1H16.5c-.4,0-.8-.2-1-.4-.2-.2-.2-.4-.1-.7.3-.7.7-1.3,1.2-1.8s1.1-.9,1.8-1.2c.7-.3,1.4-.4,2.1-.4s1.4,0,2.1.4,1.3.7,1.8,1.2h0c.2.2.5.3.7.3h2.5c3,0,5.5-2.5,5.5-5.5v-1.6H12.1c-6.9-.6-10.6-5.7-10.6-9.3v-9.7c0-4.1,3.3-7.4,7.4-7.4h3.2c4.4,0,8,3.6,8,8v2.3c0,1.4-1.1,2.6-2.5,2.6s-2.5-1.1-2.5-2.6v-2.6c0-1.4-1.2-2.6-2.6-2.6s-2.6,1.2-2.6,2.6v4.2c0,3.8,3,6.8,6.8,6.8h4.5c4.5,0,8.1-3.6,8.1-8.1v-5.2c0-2-1.5-3.5-3.2-4.1-1.2-.4-2.4-1.1-3.3-2.5-.8-1.3-1.4-3.4-.9-6.8h0c.5-4,1.7-6.1,2.9-7.2,1.2-1.1,2.6-1.4,3.6-1.5h.8Z"/>
            <circle class="cls-1" cx="36.3" cy="47.2" r="2.9"/>
            <circle class="cls-1" cx="29.7" cy="32.4" r="3.7"/>
            <circle class="cls-1" cx="32.2" cy="63.6" r="3.7"/>
            <circle class="cls-1" cx="5.8" cy="61.1" r="3.7"/>
            <circle class="cls-1" cx="47" cy="57.9" r="3.7"/>
            <path class="cls-5" d="M42.4,1.7h0c4.9,0,8.9,4,8.9,8.9v13.2c0,4.9-4,8.9-8.9,8.9h0c-4.9,0-8.9-4-8.9-8.9v-13.2c0-4.9,4-8.9,8.9-8.9Z"/>
            <path class="cls-3" d="M44.9,8.7h0c3.5,0,6.4,2.9,6.4,6.4v8.2c0,3.5-2.9,6.4-6.4,6.4h0c-3.5,0-6.4-2.9-6.4-6.4v-8.2c0-3.5,2.9-6.4,6.4-6.4Z"/>
            <path class="cls-5" d="M62.2,1.7h0c4.9,0,8.9,4,8.9,8.9v13.2c0,4.9-4,8.9-8.9,8.9h0c-4.9,0-8.9-4-8.9-8.9v-13.2c0-4.9,4-8.9,8.9-8.9Z"/>
            <path class="cls-3" d="M64.6,8.7h0c3.5,0,6.4,2.9,6.4,6.4v8.2c0,3.5-2.9,6.4-6.4,6.4h0c-3.5,0-6.4-2.9-6.4-6.4v-8.2c0-3.5,2.9-6.4,6.4-6.4Z"/>
            <path class="cls-4" d="M40.4,77.4h0c.2.2.5.3.7.3h2.1c3.3,0,5.9-2.7,5.9-5.9v-20.6c0-1,.8-1.8,1.8-1.8s1.8.8,1.8,1.7l1.3,22.2c0,2.5,2.2,4.4,4.7,4.4h2.3c.5,0,1-.3,1.2-.8h0c.6-1.4,1.4-2.6,2.4-3.7,1-1,2.2-1.9,3.6-2.4,1.3-.6,2.7-.9,4.2-.9s2.9.3,4.2.9c1.3.6,2.5,1.4,3.6,2.4,1,1,1.8,2.3,2.4,3.7.3.8,0,1.6-.4,2.2-.6.6-1.5,1.1-2.6,1.1h-46.9c-.4,0-.8-.2-1-.4-.2-.2-.2-.4-.1-.7.3-.7.7-1.3,1.2-1.8s1.1-.9,1.8-1.2c.7-.3,1.4-.4,2.1-.4s1.4,0,2.1.4c.7.3,1.3.7,1.8,1.2h-.2,0Z"/>
            <path d="M77.8,30.3h0c.5,0,.8.4.8.8v.8c0,.5-.4.8-.8.8h0c-.5,0-.8-.4-.8-.8v-.8c0-.5.4-.8.8-.8Z"/>
            <path d="M75.3,30.3h0c.5,0,.8.4.8.8v.8c0,.5-.4.8-.8.8h0c-.5,0-.8-.4-.8-.8v-.8c0-.5.4-.8.8-.8Z"/>
            <rect class="cls-6" x="46.6" y="47.6" width="8.2" height="5.8"/>
            <circle cx="49.1" cy="53.4" r="1"/>
            <circle cx="52.8" cy="53.4" r="1"/>
            <circle class="cls-1" cx="71.6" cy="74.3" r="2.9"/>
            <path class="cls-3" d="M130.5,7.3c0-1.7,1.3-3,3-3s3,1.3,3,3v73h-6V7.3Z"/>
            <path class="cls-2" d="M193,26.8c1.8,2,1.7,5-.2,6.8l-10,10c-1.7,1.7-4,2.6-6.4,2.6h-77.9c-2.8,0-5-2.2-5-5v-24c0-2.8,2.2-5,5-5h77.6c2.6,0,5,1.1,6.7,3l.7-.7-.7.7,10.1,11.5h0Z"/>
            <path d="M167.5,27.6c-.8,0-1.5.7-1.5,1.5s.7,1.5,1.5,1.5v-3ZM184.1,30.1c.6-.6.6-1.5,0-2.1l-9.5-9.5c-.6-.6-1.5-.6-2.1,0s-.6,1.5,0,2.1l8.5,8.5-8.5,8.5c-.6.6-.6,1.5,0,2.1s1.5.6,2.1,0l9.5-9.5h0ZM167.5,30.6h15.5v-3h-15.5v3Z"/>
          </g>
        </g>
        <path d="M144.4,33.2v-1.3h1.8v-6.1h-1.8v-1.3h5v1.3h-1.8v6.1h1.8v1.3h-5ZM151.5,33.2v-6.6h1.5v1.3h.4l-.4.3c0-.5.2-1,.5-1.3s.8-.5,1.3-.5,1.2.2,1.5.6c.4.4.6,1,.6,1.7v4.3h-1.5v-4.2c0-.4-.1-.7-.3-.9-.2-.2-.5-.3-.9-.3s-.7.1-.9.3c-.2.2-.3.5-.3,1v4.1h-1.5v.2Z"/>
      </g>
      <g>
        <path d="M111.5,26.5c-.6,0-1,.2-1.3.5-.2.2-.4.5-.4.9h0v-1.3s0-2.2,0-2.2h-1.5v8.8h1.5v-4.1c0-.4.1-.7.3-1,.2-.2.5-.3.9-.3s.7.1.9.3c.2.2.3.5.3.9v4.2h1.5v-4.3c0-.7-.2-1.3-.6-1.7-.4-.4-.9-.6-1.5-.6Z"/>
        <path d="M102.8,26c.2-.2.5-.3.9-.3s.7.1.9.3c.2.2.3.5.3.9h1.5c0-.5-.1-1-.3-1.4-.2-.4-.6-.7-1-.9-.4-.2-.9-.3-1.5-.3s-1.1.1-1.5.3c-.4.2-.7.5-1,.9-.2.4-.3.8-.3,1.4v3.8c0,.5.1,1,.3,1.4.2.4.6.7,1,.9.4.2.9.3,1.5.3s1.1-.1,1.5-.3c.4-.2.7-.5,1-.9s.3-.8.3-1.4h-1.5c0,.4-.1.7-.3.9s-.5.3-.9.3-.7-.1-.9-.3c-.2-.2-.3-.5-.3-.9v-3.8c0-.4.1-.7.3-.9Z"/>
        <path d="M119.6,26.8c-.4-.2-.9-.3-1.4-.3s-1,.1-1.5.3-.7.5-1,.9c-.2.4-.3.8-.3,1.4v1.7c0,.5.1,1,.3,1.4.2.4.6.7,1,.9s.9.3,1.5.3,1.3-.2,1.8-.5c.5-.3.8-.8.9-1.4h-1.5c0,.2-.2.4-.4.5-.2.1-.5.2-.8.2s-.8-.1-1-.3c-.2-.2-.3-.6-.3-1.1v-.5h4.1v-1.2c0-.5-.1-1-.3-1.4-.2-.4-.5-.7-1-.9ZM119.4,29.3h-2.6s0-.2,0-.2c0-.5.1-.8.3-1.1.2-.2.6-.4,1-.4s.8.1,1,.4c.2.2.3.6.3,1v.2Z"/>
        <path d="M124.4,28.2c.2-.2.5-.3.9-.3s.7,0,.9.3c.2.2.3.4.4.8h1.5c0-.7-.3-1.3-.8-1.7-.5-.4-1.2-.6-2-.6s-1.1.1-1.5.3c-.4.2-.7.5-1,.9-.2.4-.3.8-.3,1.4v1.7c0,.5.1,1,.3,1.4.2.4.6.7,1,.9.4.2.9.3,1.5.3.8,0,1.5-.2,2-.6.5-.4.8-1,.8-1.8h-1.5c0,.3-.1.6-.4.8-.2.2-.5.3-.9.3s-.7-.1-.9-.3-.3-.5-.3-.9v-1.7c0-.4.1-.7.3-.9Z"/>
        <polygon points="135.7 26.6 134 26.6 132.4 29.2 131.4 29.2 131.4 24.5 129.9 24.5 129.9 33.2 131.4 33.2 131.4 30.5 132.4 30.5 134 33.2 135.7 33.2 133.7 29.8 135.7 26.6"/>
      </g>
    </g>
  </g>
</svg>