<svg width="214" height="81" viewBox="0 0 214 81" fill="none" xmlns="http://www.w3.org/2000/svg">
<path d="M170.043 76.7224L170.043 76.7224L170.076 76.7564C170.268 76.9517 170.53 77.0623 170.804 77.0623H172.875C176.154 77.0623 178.813 74.4037 178.813 71.1241V50.5254C178.813 49.5178 179.63 48.7009 180.638 48.7009C181.605 48.7009 182.404 49.4559 182.459 50.4217L183.725 72.6443C183.866 75.1239 185.918 77.0623 188.402 77.0623H190.743C191.274 77.0623 191.737 76.736 191.929 76.2599L191.001 75.8867L191.929 76.2599C192.481 74.8853 193.291 73.6383 194.31 72.5892C195.328 71.5402 196.536 70.7096 197.863 70.1436C199.19 69.5775 200.611 69.2866 202.045 69.2866C203.48 69.2866 204.901 69.5775 206.228 70.1436C207.555 70.7096 208.763 71.5402 209.781 72.5892C210.8 73.6383 211.609 74.8853 212.162 76.2599C212.503 77.1063 212.304 77.8888 211.756 78.5065C211.186 79.1487 210.236 79.5981 209.172 79.5981H162.264C161.83 79.5981 161.462 79.4129 161.259 79.183C161.078 78.9785 161.029 78.7577 161.136 78.5002C161.41 77.8352 161.813 77.2311 162.32 76.7224C162.828 76.2137 163.43 75.8103 164.092 75.5351C164.755 75.26 165.465 75.1184 166.182 75.1184C166.898 75.1184 167.608 75.26 168.271 75.5351C168.933 75.8103 169.535 76.2137 170.043 76.7224Z" fill="#0CAC56" stroke="black" stroke-width="2"/>
<path d="M156.884 76.7224L156.884 76.7224L156.918 76.7564C157.109 76.9515 157.371 77.0623 157.646 77.0623H159.716C162.996 77.0623 165.654 74.4037 165.654 71.1241V62.0927C165.654 61.0556 166.495 60.215 167.532 60.215C168.5 60.215 169.309 60.9503 169.401 61.9134L170.44 72.7499C170.675 75.1954 172.729 77.0623 175.186 77.0623H177.584C178.115 77.0623 178.578 76.736 178.77 76.2599C179.323 74.8854 180.132 73.6383 181.151 72.5892C182.169 71.5402 183.377 70.7097 184.704 70.1436C186.031 69.5775 187.452 69.2866 188.887 69.2866C190.321 69.2866 191.742 69.5775 193.069 70.1436C194.396 70.7096 195.604 71.5402 196.622 72.5892L197.34 71.8926M156.884 76.7224L157.592 76.0163C156.992 75.4146 156.28 74.9373 155.496 74.6116C154.712 74.286 153.871 74.1184 153.023 74.1184C152.174 74.1184 151.334 74.286 150.55 74.6116C149.766 74.9373 149.053 75.4146 148.453 76.0163C147.853 76.618 147.377 77.3323 147.053 78.1184C146.516 79.4171 147.7 80.5981 149.105 80.5981L196.013 80.5981C198.68 80.5981 200.926 78.3605 199.931 75.8867C199.33 74.393 198.45 73.0358 197.34 71.8926M156.884 76.7224C156.377 76.2137 155.774 75.8103 155.112 75.5351C154.45 75.26 153.74 75.1184 153.023 75.1184C152.306 75.1184 151.596 75.26 150.933 75.5351C150.271 75.8103 149.669 76.2137 149.161 76.7224C148.654 77.2311 148.252 77.8352 147.977 78.5002C147.871 78.7577 147.919 78.9785 148.1 79.183C148.303 79.413 148.671 79.5981 149.105 79.5981L196.013 79.5981C197.078 79.5981 198.027 79.1487 198.597 78.5065C199.145 77.8888 199.344 77.1063 199.003 76.2599C198.451 74.8854 197.641 73.6383 196.622 72.5892L197.34 71.8926M156.884 76.7224L197.34 71.8926" fill="#0CAC56" stroke="black" stroke-width="2"/>
<path d="M153.771 26.7538L154.629 26.6305V25.764V23.1356C154.629 17.2649 159.363 12.514 165.194 12.514H184.47C188.171 12.514 191.18 15.5305 191.18 19.2618V25.7182V26.7182H192.18H201.575C204.701 26.7182 207.243 29.266 207.243 32.419C207.243 39.5811 201.466 45.3789 194.351 45.3789H185.47C184.365 45.3789 183.47 46.2743 183.47 47.3789V53.481C183.47 58.988 179.034 63.4454 173.568 63.457L172.463 63.4087C168.514 63.2362 165.043 66.4083 165.359 70.4748C165.473 71.9445 165.655 73.4374 165.957 74.5835C166.105 75.1488 166.301 75.7023 166.576 76.1362C166.841 76.5524 167.328 77.0786 168.096 77.0786H170.341C170.873 77.0786 171.334 76.7501 171.524 76.2761C172.074 74.9068 172.879 73.6646 173.891 72.6197C174.904 71.5749 176.104 70.7478 177.423 70.1842C178.741 69.6205 180.153 69.3309 181.578 69.3309C183.003 69.3309 184.416 69.6205 185.734 70.1842C187.053 70.7478 188.253 71.5749 189.265 72.6197C190.278 73.6646 191.082 74.9068 191.632 76.2761C191.665 76.3591 191.698 76.4424 191.729 76.526L191.729 76.526C192.023 77.3102 191.833 78.0313 191.329 78.5983C190.805 79.1875 189.939 79.5981 188.967 79.5981H142.016C141.59 79.5981 141.228 79.4152 141.028 79.1875C140.849 78.985 140.801 78.7652 140.907 78.5084C141.18 77.8461 141.58 77.2446 142.084 76.7381C142.588 76.2317 143.186 75.8302 143.844 75.5564C144.502 75.2825 145.206 75.1417 145.918 75.1417C146.63 75.1417 147.335 75.2825 147.993 75.5564C148.651 75.8302 149.249 76.2317 149.753 76.7381L149.753 76.7383L149.786 76.7719L149.787 76.7725C149.977 76.9666 150.239 77.0786 150.515 77.0786H152.986C156.027 77.0786 158.484 74.6028 158.484 71.5591V70.9134V69.9134H157.484H137.61C130.689 69.2891 127 64.1811 127 60.5831V50.8984C127 46.8106 130.297 43.505 134.353 43.505H137.565C141.977 43.505 145.561 47.0996 145.561 51.5441V53.8038C145.561 55.2173 144.422 56.3549 143.027 56.3549C141.632 56.3549 140.493 55.2173 140.493 53.8038L140.493 51.2212C140.493 49.7821 139.331 48.6071 137.887 48.6071C136.443 48.6071 135.28 49.7821 135.28 51.2212V55.4179C135.28 59.1749 138.313 62.2287 142.063 62.2287H146.561C151.021 62.2287 154.629 58.5967 154.629 54.1266V48.9328C154.629 46.8923 153.107 45.4041 151.43 44.8148C150.244 44.3981 149.01 43.67 148.164 42.3213C147.318 40.9745 146.773 38.8723 147.23 35.5389L147.232 35.528L147.233 35.517C147.697 31.4787 148.929 29.4038 150.151 28.2935C151.378 27.1785 152.736 26.9026 153.771 26.7538ZM157.47 71.9134C157.29 74.2439 155.351 76.0786 152.986 76.0786H150.515C150.51 76.0786 150.505 76.0765 150.501 76.0728L150.462 76.0327C149.865 75.4332 149.157 74.9576 148.377 74.6331C147.598 74.3087 146.762 74.1417 145.918 74.1417C145.074 74.1417 144.239 74.3087 143.459 74.6331C142.68 74.9576 141.972 75.4332 141.375 76.0327C140.778 76.6323 140.305 77.344 139.982 78.1273C139.449 79.421 140.623 80.5981 142.016 80.5981H188.967C191.451 80.5981 193.54 78.5114 192.665 76.1753L157.47 71.9134Z" fill="#0CAC56" stroke="black" stroke-width="2"/>
<circle cx="161.776" cy="46.4673" r="2.8785" fill="#FB8510"/>
<circle cx="155.196" cy="31.6636" r="3.70093" fill="#FB8510"/>
<circle cx="157.664" cy="62.9159" r="3.70093" fill="#FB8510"/>
<circle cx="131.346" cy="60.4486" r="3.70093" fill="#FB8510"/>
<circle cx="172.467" cy="57.1589" r="3.70093" fill="#FB8510"/>
<rect x="159.075" y="1" width="17.7383" height="30.8972" rx="8.86916" fill="white" stroke="black" stroke-width="2"/>
<rect x="159" y="7" width="12.8037" height="21.028" rx="6.40187" fill="black" stroke="black" stroke-width="2"/>
<rect x="178.813" y="1" width="17.7383" height="30.8972" rx="8.86916" fill="white" stroke="black" stroke-width="2"/>
<rect x="178.738" y="7" width="12.8037" height="21.028" rx="6.40187" fill="black" stroke="black" stroke-width="2"/>
<path d="M165.931 76.7224L165.931 76.7224L165.964 76.7564C166.156 76.9517 166.418 77.0623 166.692 77.0623H168.763C172.042 77.0623 174.701 74.4037 174.701 71.1241V50.5254C174.701 49.5178 175.518 48.7009 176.525 48.7009C177.493 48.7009 178.292 49.4559 178.347 50.4217L179.613 72.6443C179.754 75.1239 181.806 77.0623 184.29 77.0623H186.631C187.161 77.0623 187.625 76.736 187.816 76.2599L186.889 75.8867L187.816 76.2599C188.369 74.8853 189.179 73.6383 190.197 72.5892C191.216 71.5402 192.424 70.7096 193.751 70.1436C195.078 69.5775 196.499 69.2866 197.933 69.2866C199.368 69.2866 200.789 69.5775 202.116 70.1436C203.443 70.7096 204.65 71.5402 205.669 72.5892C206.688 73.6383 207.497 74.8853 208.05 76.2599C208.391 77.1063 208.192 77.8888 207.644 78.5065C207.074 79.1487 206.124 79.5981 205.06 79.5981H158.152C157.718 79.5981 157.35 79.4129 157.147 79.183C156.966 78.9785 156.917 78.7577 157.024 78.5002C157.298 77.8352 157.701 77.2311 158.208 76.7224C158.716 76.2137 159.318 75.8103 159.98 75.5351C160.643 75.26 161.353 75.1184 162.069 75.1184C162.786 75.1184 163.496 75.26 164.159 75.5351C164.821 75.8103 165.423 76.2137 165.931 76.7224Z" fill="#0CAC56" stroke="black" stroke-width="2"/>
<rect x="202.486" y="29.6075" width="1.64486" height="2.46729" rx="0.82243" fill="black"/>
<rect x="200.019" y="29.6075" width="1.64486" height="2.46729" rx="0.82243" fill="black"/>
<rect x="172.056" y="46.8785" width="8.2243" height="5.75701" fill="#0CAC56"/>
<circle cx="174.523" cy="52.6355" r="0.82243" fill="black"/>
<circle cx="178.636" cy="52.6355" r="0.82243" fill="black"/>
<circle cx="197.14" cy="73.6075" r="2.8785" fill="#FB8510"/>
<path d="M1 30.4864C1 22.2949 7.64056 15.6543 15.8321 15.6543H101.495C109.687 15.6543 116.327 22.2949 116.327 30.4864C116.327 43.0499 106.142 53.2346 93.579 53.2346H23.7481C11.1847 53.2346 1 43.0499 1 30.4864Z" fill="black" stroke="black" stroke-width="2"/>
<rect x="1" y="10" width="115.327" height="37.5802" rx="18.7901" fill="#0CAC56" stroke="black" stroke-width="2"/>
<path d="M39.7197 33.12C39.1597 33.12 38.6677 33.016 38.2437 32.808C37.8277 32.592 37.5037 32.292 37.2717 31.908C37.0477 31.516 36.9357 31.056 36.9357 30.528V26.712C36.9357 26.176 37.0477 25.716 37.2717 25.332C37.5037 24.948 37.8277 24.652 38.2437 24.444C38.6677 24.228 39.1597 24.12 39.7197 24.12C40.2877 24.12 40.7757 24.228 41.1837 24.444C41.5997 24.652 41.9237 24.948 42.1557 25.332C42.3877 25.716 42.5037 26.176 42.5037 26.712H40.9917C40.9917 26.296 40.8797 25.98 40.6557 25.764C40.4397 25.548 40.1277 25.44 39.7197 25.44C39.3117 25.44 38.9957 25.548 38.7717 25.764C38.5477 25.98 38.4357 26.292 38.4357 26.7V30.528C38.4357 30.936 38.5477 31.252 38.7717 31.476C38.9957 31.692 39.3117 31.8 39.7197 31.8C40.1277 31.8 40.4397 31.692 40.6557 31.476C40.8797 31.252 40.9917 30.936 40.9917 30.528H42.5037C42.5037 31.048 42.3877 31.504 42.1557 31.896C41.9237 32.288 41.5997 32.592 41.1837 32.808C40.7757 33.016 40.2877 33.12 39.7197 33.12ZM44.191 33V24.24H45.691V26.4L45.655 27.66H46.063L45.655 28.008C45.655 27.464 45.811 27.04 46.123 26.736C46.443 26.432 46.879 26.28 47.431 26.28C48.079 26.28 48.595 26.496 48.979 26.928C49.371 27.36 49.567 27.94 49.567 28.668V33H48.067V28.824C48.067 28.424 47.963 28.116 47.755 27.9C47.547 27.684 47.255 27.576 46.879 27.576C46.511 27.576 46.219 27.688 46.003 27.912C45.795 28.136 45.691 28.456 45.691 28.872V33H44.191ZM54.0743 33.12C53.5143 33.12 53.0263 33.012 52.6103 32.796C52.1943 32.58 51.8703 32.28 51.6383 31.896C51.4143 31.504 51.3023 31.048 51.3023 30.528V28.872C51.3023 28.352 51.4143 27.9 51.6383 27.516C51.8703 27.124 52.1943 26.82 52.6103 26.604C53.0263 26.388 53.5143 26.28 54.0743 26.28C54.6263 26.28 55.1063 26.388 55.5143 26.604C55.9303 26.82 56.2503 27.124 56.4743 27.516C56.7063 27.9 56.8223 28.352 56.8223 28.872V30.06H52.7543V30.528C52.7543 30.992 52.8663 31.344 53.0903 31.584C53.3143 31.816 53.6463 31.932 54.0863 31.932C54.4223 31.932 54.6943 31.876 54.9023 31.764C55.1103 31.644 55.2423 31.472 55.2983 31.248H56.7743C56.6623 31.816 56.3583 32.272 55.8623 32.616C55.3743 32.952 54.7783 33.12 54.0743 33.12ZM55.3703 29.22V28.86C55.3703 28.404 55.2623 28.056 55.0463 27.816C54.8303 27.568 54.5063 27.444 54.0743 27.444C53.6423 27.444 53.3143 27.568 53.0903 27.816C52.8663 28.064 52.7543 28.416 52.7543 28.872V29.124L55.4783 29.1L55.3703 29.22ZM61.2936 33.12C60.7336 33.12 60.2416 33.016 59.8176 32.808C59.4016 32.592 59.0776 32.292 58.8456 31.908C58.6136 31.516 58.4976 31.056 58.4976 30.528V28.872C58.4976 28.336 58.6136 27.876 58.8456 27.492C59.0776 27.108 59.4016 26.812 59.8176 26.604C60.2416 26.388 60.7336 26.28 61.2936 26.28C62.1256 26.28 62.7896 26.496 63.2856 26.928C63.7816 27.352 64.0416 27.932 64.0656 28.668H62.5656C62.5416 28.324 62.4176 28.06 62.1936 27.876C61.9776 27.684 61.6776 27.588 61.2936 27.588C60.8936 27.588 60.5776 27.7 60.3456 27.924C60.1136 28.14 59.9976 28.452 59.9976 28.86V30.528C59.9976 30.936 60.1136 31.252 60.3456 31.476C60.5776 31.7 60.8936 31.812 61.2936 31.812C61.6776 31.812 61.9776 31.72 62.1936 31.536C62.4176 31.344 62.5416 31.076 62.5656 30.732H64.0656C64.0416 31.468 63.7816 32.052 63.2856 32.484C62.7896 32.908 62.1256 33.12 61.2936 33.12ZM65.8129 33V24.24H67.3129V28.992H68.3569L69.9649 26.4H71.6449L69.6529 29.592L71.6809 33H69.9649L68.3569 30.264H67.3129V33H65.8129ZM82.8435 33.12C82.2835 33.12 81.7955 33.016 81.3795 32.808C80.9715 32.592 80.6555 32.292 80.4315 31.908C80.2155 31.516 80.1075 31.056 80.1075 30.528V26.712C80.1075 26.184 80.2155 25.728 80.4315 25.344C80.6555 24.952 80.9715 24.652 81.3795 24.444C81.7955 24.228 82.2835 24.12 82.8435 24.12C83.4115 24.12 83.8995 24.228 84.3075 24.444C84.7155 24.652 85.0275 24.952 85.2435 25.344C85.4675 25.728 85.5795 26.18 85.5795 26.7V30.528C85.5795 31.056 85.4675 31.516 85.2435 31.908C85.0275 32.292 84.7155 32.592 84.3075 32.808C83.8995 33.016 83.4115 33.12 82.8435 33.12ZM82.8435 31.8C83.2515 31.8 83.5595 31.692 83.7675 31.476C83.9755 31.252 84.0795 30.936 84.0795 30.528V26.712C84.0795 26.296 83.9755 25.98 83.7675 25.764C83.5595 25.548 83.2515 25.44 82.8435 25.44C82.4355 25.44 82.1275 25.548 81.9195 25.764C81.7115 25.98 81.6075 26.296 81.6075 26.712V30.528C81.6075 30.936 81.7115 31.252 81.9195 31.476C82.1355 31.692 82.4435 31.8 82.8435 31.8ZM90.0389 33.12C89.1989 33.12 88.5389 32.888 88.0589 32.424C87.5789 31.952 87.3389 31.312 87.3389 30.504V26.4H88.8389V30.492C88.8389 30.916 88.9429 31.244 89.1509 31.476C89.3589 31.7 89.6549 31.812 90.0389 31.812C90.4149 31.812 90.7069 31.7 90.9149 31.476C91.1309 31.244 91.2389 30.916 91.2389 30.492V26.4H92.7389V30.504C92.7389 31.312 92.4949 31.952 92.0069 32.424C91.5189 32.888 90.8629 33.12 90.0389 33.12ZM97.9542 33C97.3222 33 96.8262 32.824 96.4662 32.472C96.1142 32.12 95.9382 31.636 95.9382 31.02V27.756H94.1502V26.4H95.9382V24.54H97.4502V26.4H99.9822V27.756H97.4502V31.02C97.4502 31.436 97.6542 31.644 98.0622 31.644H99.8622V33H97.9542Z" fill="black"/>
<path d="M29.5494 29.5833C30.3778 29.5833 31.0494 28.9118 31.0494 28.0833C31.0494 27.2549 30.3778 26.5833 29.5494 26.5833L29.5494 29.5833ZM12.9394 27.0227C12.3536 27.6085 12.3536 28.5582 12.9394 29.144L22.4853 38.6899C23.0711 39.2757 24.0208 39.2757 24.6066 38.6899C25.1924 38.1042 25.1924 37.1544 24.6066 36.5686L16.1213 28.0833L24.6066 19.5981C25.1924 19.0123 25.1924 18.0625 24.6066 17.4767C24.0208 16.891 23.0711 16.891 22.4853 17.4767L12.9394 27.0227ZM29.5494 26.5833L14 26.5833L14 29.5833L29.5494 29.5833L29.5494 26.5833Z" fill="black"/>
</svg>
