<?xml version="1.0" encoding="UTF-8"?>
<svg xmlns="http://www.w3.org/2000/svg" version="1.1" viewBox="0 0 214 82">
  <defs>
    <style>
      .cls-1 {
        fill: #fb8510;
      }

      .cls-2, .cls-3, .cls-4 {
        stroke: #000;
        stroke-width: 2px;
      }

      .cls-5, .cls-3 {
        fill: #0cac56;
      }

      .cls-4 {
        fill: #fff;
      }
    </style>
  </defs>
  <!-- Generator: Adobe Illustrator 28.7.1, SVG Export Plug-In . SVG Version: 1.2.0 Build 142)  -->
  <g>
    <g id="Layer_1">
      <g>
        <g id="Layer_1-2" data-name="Layer_1">
          <g id="Layer_1-2">
            <path class="cls-2" d="M67,7.3c0-1.7-1.3-3-3-3s-3,1.3-3,3v73h6V7.3Z"/>
            <path class="cls-3" d="M4.7,26.7c-1.8,2-1.7,5.1.2,7l10.4,10.1c1.7,1.6,3.9,2.5,6.3,2.5h81.4c2.8,0,5-2.2,5-5v-24c0-2.8-2.2-5-5-5H21.9c-2.5,0-4.9,1.1-6.6,2.9,0,0-10.6,11.5-10.6,11.5Z"/>
            <path d="M29.5,30.9c.8,0,1.5-.7,1.5-1.5s-.7-1.5-1.5-1.5v3ZM12.9,28.3c-.6.6-.6,1.5,0,2.1l9.5,9.5c.6.6,1.5.6,2.1,0s.6-1.5,0-2.1l-8.5-8.5,8.5-8.5c.6-.6.6-1.5,0-2.1s-1.5-.6-2.1,0l-9.5,9.5h0ZM29.5,27.9h-15.5v3h15.5v-3Z"/>
            <path class="cls-3" d="M170,77.4h0c.2.2.5.3.7.3h2.1c3.3,0,5.9-2.7,5.9-5.9v-20.6c0-1,.8-1.8,1.8-1.8s1.8.8,1.8,1.7l1.3,22.2c.1,2.5,2.2,4.4,4.7,4.4h2.3c.5,0,1-.3,1.2-.8l-.9-.4.9.4c.6-1.4,1.4-2.6,2.4-3.7,1-1,2.2-1.9,3.6-2.4,1.3-.6,2.7-.9,4.2-.9s2.9.3,4.2.9,2.5,1.4,3.6,2.4c1,1,1.8,2.3,2.4,3.7.3.8.1,1.6-.4,2.2-.6.6-1.5,1.1-2.6,1.1h-46.9c-.4,0-.8-.2-1-.4-.2-.2-.2-.4-.1-.7.3-.7.7-1.3,1.2-1.8s1.1-.9,1.8-1.2c.7-.3,1.4-.4,2.1-.4s1.4,0,2.1.4c.7.3,1.3.7,1.8,1.2h-.2Z"/>
            <path class="cls-3" d="M156.9,77.9h0c.2.2.5.4.7.4h2.1c3.3,0,5.9-2.7,5.9-6.1v-9.3c0-1.1.8-1.9,1.9-1.9s1.8.8,1.9,1.8l1,11.2c.2,2.5,2.3,4.4,4.7,4.4h2.4c.5,0,1-.3,1.2-.8.6-1.4,1.4-2.7,2.4-3.8,1-1.1,2.2-1.9,3.6-2.5,1.3-.6,2.7-.9,4.2-.9s2.9.3,4.2.9,2.5,1.4,3.6,2.5l.7-.7"/>
            <path class="cls-3" d="M154.7,27.5v-3.6c0-5.9,4.7-10.6,10.6-10.6h19.3c3.7,0,6.7,3,6.7,6.7v7.5h10.4c3.1,0,5.7,2.5,5.7,5.7,0,7.2-5.8,13-12.9,13h-8.9c-1.1,0-2,.9-2,2v6.1c0,5.5-4.4,10-9.9,10h-1.1c-3.9-.2-7.4,3-7.1,7,.1,1.5.3,3,.6,4.1.1.6.3,1.1.6,1.6.3.4.8.9,1.5.9h2.2c.5,0,1-.3,1.2-.8.6-1.4,1.4-2.6,2.4-3.7,1-1,2.2-1.9,3.5-2.4,1.3-.6,2.7-.9,4.2-.9s2.8.3,4.2.9c1.3.6,2.5,1.4,3.5,2.4s1.8,2.3,2.4,3.7v.2h0c.3.8.1,1.5-.4,2.1s-1.4,1-2.4,1h-47c-.4,0-.8-.2-1-.4-.2-.2-.2-.4-.1-.7.3-.7.7-1.3,1.2-1.8s1.1-.9,1.8-1.2c.7-.3,1.4-.4,2.1-.4s1.4,0,2.1.4c.7.3,1.3.7,1.8,1.2h0c.2.2.5.3.7.3h2.5c3,0,5.5-2.5,5.5-5.5v-1.6h-20.9c-6.9-.6-10.6-5.7-10.6-9.3v-9.7c0-4.1,3.3-7.4,7.4-7.4h3.2c4.4,0,8,3.6,8,8v2.3c0,1.4-1.1,2.6-2.5,2.6s-2.5-1.1-2.5-2.6v-2.6c0-1.4-1.2-2.6-2.6-2.6s-2.6,1.2-2.6,2.6v4.2c0,3.8,3,6.8,6.8,6.8h4.5c4.5,0,8.1-3.6,8.1-8.1v-5.2c0-2-1.5-3.5-3.2-4.1-1.2-.4-2.4-1.1-3.3-2.5-.8-1.3-1.4-3.4-.9-6.8h0c.5-4,1.7-6.1,2.9-7.2s2.6-1.4,3.6-1.5h.7,0Z"/>
            <circle class="cls-1" cx="161.8" cy="47.2" r="2.9"/>
            <circle class="cls-1" cx="155.2" cy="32.4" r="3.7"/>
            <circle class="cls-1" cx="157.7" cy="63.6" r="3.7"/>
            <circle class="cls-1" cx="131.3" cy="61.1" r="3.7"/>
            <circle class="cls-1" cx="172.5" cy="57.9" r="3.7"/>
            <path class="cls-4" d="M167.9,1.7h0c4.9,0,8.9,4,8.9,8.9v13.2c0,4.9-4,8.9-8.9,8.9h0c-4.9,0-8.9-4-8.9-8.9v-13.2c0-4.9,4-8.9,8.9-8.9Z"/>
            <path class="cls-2" d="M165.4,7.7h0c3.5,0,6.4,2.9,6.4,6.4v8.2c0,3.5-2.9,6.4-6.4,6.4h0c-3.5,0-6.4-2.9-6.4-6.4v-8.2c0-3.5,2.9-6.4,6.4-6.4Z"/>
            <path class="cls-4" d="M187.7,1.7h0c4.9,0,8.9,4,8.9,8.9v13.2c0,4.9-4,8.9-8.9,8.9h0c-4.9,0-8.9-4-8.9-8.9v-13.2c0-4.9,4-8.9,8.9-8.9Z"/>
            <path class="cls-2" d="M185.1,7.7h0c3.5,0,6.4,2.9,6.4,6.4v8.2c0,3.5-2.9,6.4-6.4,6.4h0c-3.5,0-6.4-2.9-6.4-6.4v-8.2c0-3.5,2.9-6.4,6.4-6.4Z"/>
            <path class="cls-3" d="M165.9,77.4c.2.2.5.3.7.3h2.1c3.3,0,5.9-2.7,5.9-5.9v-20.6c0-1,.8-1.8,1.8-1.8s1.8.8,1.8,1.7l1.3,22.2c.1,2.5,2.2,4.4,4.7,4.4h2.3c.5,0,1-.3,1.2-.8h0c.6-1.4,1.4-2.6,2.4-3.7,1-1,2.2-1.9,3.6-2.4,1.3-.6,2.7-.9,4.2-.9s2.9.3,4.2.9,2.5,1.4,3.6,2.4c1,1,1.8,2.3,2.4,3.7.3.8.1,1.6-.4,2.2-.6.6-1.5,1.1-2.6,1.1h-46.9c-.4,0-.8-.2-1-.4-.2-.2-.2-.4-.1-.7.3-.7.7-1.3,1.2-1.8s1.1-.9,1.8-1.2c.7-.3,1.4-.4,2.1-.4s1.4,0,2.1.4c.7.3,1.6,1.3,1.6,1.3Z"/>
            <path d="M203.3,30.3h0c.5,0,.8.4.8.8v.8c0,.5-.4.8-.8.8h0c-.5,0-.8-.4-.8-.8v-.8c0-.5.4-.8.8-.8Z"/>
            <path d="M200.8,30.3h0c.5,0,.8.4.8.8v.8c0,.5-.4.8-.8.8h0c-.5,0-.8-.4-.8-.8v-.8c0-.5.4-.8.8-.8Z"/>
            <rect class="cls-5" x="172.1" y="47.6" width="8.2" height="5.8"/>
            <circle cx="174.6" cy="53.3" r="1"/>
            <circle cx="178.3" cy="53.4" r="1"/>
            <circle class="cls-1" cx="197.1" cy="74.3" r="2.9"/>
          </g>
        </g>
        <g>
          <path d="M55.5,27.9c-.4-.2-.9-.3-1.4-.3s-1,.1-1.5.3c-.4.2-.7.5-1,.9-.2.4-.3.8-.3,1.4v1.7c0,.5.1,1,.3,1.4.2.4.6.7,1,.9.4.2.9.3,1.5.3s1.3-.2,1.8-.5c.5-.3.8-.8.9-1.4h-1.5c0,.2-.2.4-.4.5-.2.1-.5.2-.8.2s-.8-.1-1-.3c-.2-.2-.3-.6-.3-1.1v-.5h4.1v-1.2c0-.5-.1-1-.3-1.4-.2-.4-.5-.7-1-.9ZM55.3,30.4h-2.6s0-.2,0-.2c0-.5.1-.8.3-1.1s.6-.4,1-.4.8.1,1,.4c.2.2.3.6.3,1v.2Z"/>
          <path d="M38.7,27c.2-.2.5-.3.9-.3s.7.1.9.3c.2.2.3.5.3.9h1.5c0-.5-.1-1-.3-1.4s-.6-.7-1-.9c-.4-.2-.9-.3-1.5-.3s-1.1.1-1.5.3c-.4.2-.7.5-1,.9-.2.4-.3.8-.3,1.4v3.8c0,.5.1,1,.3,1.4.2.4.6.7,1,.9.4.2.9.3,1.5.3s1.1-.1,1.5-.3c.4-.2.7-.5,1-.9.2-.4.3-.8.3-1.4h-1.5c0,.4-.1.7-.3.9s-.5.3-.9.3-.7-.1-.9-.3c-.2-.2-.3-.5-.3-.9v-3.8c0-.4.1-.7.3-.9Z"/>
          <path d="M47.4,27.6c-.6,0-1,.2-1.3.5-.2.2-.4.5-.4.9h0v-1.3s0-2.2,0-2.2h-1.5v8.8h1.5v-4.1c0-.4.1-.7.3-1,.2-.2.5-.3.9-.3s.7.1.9.3c.2.2.3.5.3.9v4.2h1.5v-4.3c0-.7-.2-1.3-.6-1.7-.4-.4-.9-.6-1.5-.6Z"/>
          <path d="M91.2,31.8c0,.4-.1.8-.3,1-.2.2-.5.3-.9.3s-.7-.1-.9-.3c-.2-.2-.3-.6-.3-1v-4.1h-1.5v4.1c0,.8.2,1.4.7,1.9.5.5,1.1.7,2,.7s1.5-.2,2-.7c.5-.5.7-1.1.7-1.9v-4.1h-1.5v4.1Z"/>
          <path d="M60.3,29.2c.2-.2.5-.3.9-.3s.7,0,.9.3c.2.2.3.4.4.8h1.5c0-.7-.3-1.3-.8-1.7-.5-.4-1.2-.6-2-.6s-1.1.1-1.5.3c-.4.2-.7.5-1,.9-.2.4-.3.8-.3,1.4v1.7c0,.5.1,1,.3,1.4.2.4.6.7,1,.9.4.2.9.3,1.5.3.8,0,1.5-.2,2-.6.5-.4.8-1,.8-1.8h-1.5c0,.3-.1.6-.4.8-.2.2-.5.3-.9.3s-.7-.1-.9-.3-.3-.5-.3-.9v-1.7c0-.4.1-.7.3-.9Z"/>
          <path d="M84.3,25.7c-.4-.2-.9-.3-1.5-.3s-1,.1-1.5.3c-.4.2-.7.5-.9.9-.2.4-.3.8-.3,1.4v3.8c0,.5.1,1,.3,1.4.2.4.5.7.9.9.4.2.9.3,1.5.3s1.1-.1,1.5-.3c.4-.2.7-.5.9-.9.2-.4.3-.9.3-1.4v-3.8c0-.5-.1-1-.3-1.4-.2-.4-.5-.7-.9-.9ZM84,31.8c0,.4-.1.7-.3.9-.2.2-.5.3-.9.3s-.7-.1-.9-.3c-.2-.2-.3-.5-.3-.9v-3.8c0-.4.1-.7.3-.9s.5-.3.9-.3.7.1.9.3.3.5.3.9v3.8Z"/>
          <path d="M99.9,29v-1.4h-2.5v-1.9h-1.5v1.9h-1.8v1.4h1.8v3.3c0,.6.2,1.1.5,1.5.4.4.9.5,1.5.5h1.9v-1.4h-1.8c-.4,0-.6-.2-.6-.6v-3.3h2.5Z"/>
          <polygon points="71.6 27.7 69.9 27.7 68.3 30.3 67.3 30.3 67.3 25.5 65.8 25.5 65.8 34.3 67.3 34.3 67.3 31.5 68.3 31.5 69.9 34.3 71.6 34.3 69.6 30.9 71.6 27.7"/>
        </g>
      </g>
    </g>
  </g>
</svg>