<svg width="214" height="82" viewBox="0 0 214 82" fill="none" xmlns="http://www.w3.org/2000/svg">
<path d="M67 7.29907C67 5.64222 65.6569 4.29907 64 4.29907C62.3431 4.29907 61 5.64222 61 7.29907V80.2991H67V7.29907Z" fill="black" stroke="black" stroke-width="2"/>
<path d="M4.69749 26.71C2.86115 28.707 2.95229 31.804 4.90287 33.6894L15.3315 43.7701C17.0097 45.3923 19.2525 46.2991 21.5866 46.2991H103C105.761 46.2991 108 44.0605 108 41.2991V17.2991C108 14.5376 105.761 12.2991 103 12.2991H21.9C19.3822 12.2991 16.9795 13.3538 15.2752 15.2071L4.69749 26.71Z" fill="#0CAC56" stroke="black" stroke-width="2"/>
<path d="M39.7198 34.4191C39.1598 34.4191 38.6678 34.3151 38.2438 34.1071C37.8278 33.8911 37.5038 33.5911 37.2718 33.2071C37.0478 32.8151 36.9358 32.3551 36.9358 31.8271V28.0111C36.9358 27.4751 37.0478 27.0151 37.2718 26.6311C37.5038 26.2471 37.8278 25.9511 38.2438 25.7431C38.6678 25.5271 39.1598 25.4191 39.7198 25.4191C40.2878 25.4191 40.7758 25.5271 41.1838 25.7431C41.5998 25.9511 41.9238 26.2471 42.1558 26.6311C42.3878 27.0151 42.5038 27.4751 42.5038 28.0111H40.9918C40.9918 27.5951 40.8798 27.2791 40.6558 27.0631C40.4398 26.8471 40.1278 26.7391 39.7198 26.7391C39.3118 26.7391 38.9958 26.8471 38.7718 27.0631C38.5478 27.2791 38.4358 27.5911 38.4358 27.9991V31.8271C38.4358 32.2351 38.5478 32.5511 38.7718 32.7751C38.9958 32.9911 39.3118 33.0991 39.7198 33.0991C40.1278 33.0991 40.4398 32.9911 40.6558 32.7751C40.8798 32.5511 40.9918 32.2351 40.9918 31.8271H42.5038C42.5038 32.3471 42.3878 32.8031 42.1558 33.1951C41.9238 33.5871 41.5998 33.8911 41.1838 34.1071C40.7758 34.3151 40.2878 34.4191 39.7198 34.4191ZM44.1911 34.2991V25.5391H45.6911V27.6991L45.6551 28.9591H46.0631L45.6551 29.3071C45.6551 28.7631 45.8111 28.3391 46.1231 28.0351C46.4431 27.7311 46.8791 27.5791 47.4311 27.5791C48.0791 27.5791 48.5951 27.7951 48.9791 28.2271C49.3711 28.6591 49.5671 29.2391 49.5671 29.9671V34.2991H48.0671V30.1231C48.0671 29.7231 47.9631 29.4151 47.7551 29.1991C47.5471 28.9831 47.2551 28.8751 46.8791 28.8751C46.5111 28.8751 46.2191 28.9871 46.0031 29.2111C45.7951 29.4351 45.6911 29.7551 45.6911 30.1711V34.2991H44.1911ZM54.0744 34.4191C53.5144 34.4191 53.0264 34.3111 52.6104 34.0951C52.1944 33.8791 51.8704 33.5791 51.6384 33.1951C51.4144 32.8031 51.3024 32.3471 51.3024 31.8271V30.1711C51.3024 29.6511 51.4144 29.1991 51.6384 28.8151C51.8704 28.4231 52.1944 28.1191 52.6104 27.9031C53.0264 27.6871 53.5144 27.5791 54.0744 27.5791C54.6264 27.5791 55.1064 27.6871 55.5144 27.9031C55.9304 28.1191 56.2504 28.4231 56.4744 28.8151C56.7064 29.1991 56.8224 29.6511 56.8224 30.1711V31.3591H52.7544V31.8271C52.7544 32.2911 52.8664 32.6431 53.0904 32.8831C53.3144 33.1151 53.6464 33.2311 54.0864 33.2311C54.4224 33.2311 54.6944 33.1751 54.9024 33.0631C55.1104 32.9431 55.2424 32.7711 55.2984 32.5471H56.7744C56.6624 33.1151 56.3584 33.5711 55.8624 33.9151C55.3744 34.2511 54.7784 34.4191 54.0744 34.4191ZM55.3704 30.5191V30.1591C55.3704 29.7031 55.2624 29.3551 55.0464 29.1151C54.8304 28.8671 54.5064 28.7431 54.0744 28.7431C53.6424 28.7431 53.3144 28.8671 53.0904 29.1151C52.8664 29.3631 52.7544 29.7151 52.7544 30.1711V30.4231L55.4784 30.3991L55.3704 30.5191ZM61.2937 34.4191C60.7337 34.4191 60.2417 34.3151 59.8177 34.1071C59.4017 33.8911 59.0777 33.5911 58.8457 33.2071C58.6137 32.8151 58.4977 32.3551 58.4977 31.8271V30.1711C58.4977 29.6351 58.6137 29.1751 58.8457 28.7911C59.0777 28.4071 59.4017 28.1111 59.8177 27.9031C60.2417 27.6871 60.7337 27.5791 61.2937 27.5791C62.1257 27.5791 62.7897 27.7951 63.2857 28.2271C63.7817 28.6511 64.0417 29.2311 64.0657 29.9671H62.5657C62.5417 29.6231 62.4177 29.3591 62.1937 29.1751C61.9777 28.9831 61.6777 28.8871 61.2937 28.8871C60.8937 28.8871 60.5777 28.9991 60.3457 29.2231C60.1137 29.4391 59.9977 29.7511 59.9977 30.1591V31.8271C59.9977 32.2351 60.1137 32.5511 60.3457 32.7751C60.5777 32.9991 60.8937 33.1111 61.2937 33.1111C61.6777 33.1111 61.9777 33.0191 62.1937 32.8351C62.4177 32.6431 62.5417 32.3751 62.5657 32.0311H64.0657C64.0417 32.7671 63.7817 33.3511 63.2857 33.7831C62.7897 34.2071 62.1257 34.4191 61.2937 34.4191ZM65.813 34.2991V25.5391H67.313V30.2911H68.357L69.965 27.6991H71.645L69.653 30.8911L71.681 34.2991H69.965L68.357 31.5631H67.313V34.2991H65.813ZM82.8437 34.4191C82.2837 34.4191 81.7957 34.3151 81.3797 34.1071C80.9717 33.8911 80.6557 33.5911 80.4317 33.2071C80.2157 32.8151 80.1077 32.3551 80.1077 31.8271V28.0111C80.1077 27.4831 80.2157 27.0271 80.4317 26.6431C80.6557 26.2511 80.9717 25.9511 81.3797 25.7431C81.7957 25.5271 82.2837 25.4191 82.8437 25.4191C83.4117 25.4191 83.8997 25.5271 84.3077 25.7431C84.7157 25.9511 85.0277 26.2511 85.2437 26.6431C85.4677 27.0271 85.5797 27.4791 85.5797 27.9991V31.8271C85.5797 32.3551 85.4677 32.8151 85.2437 33.2071C85.0277 33.5911 84.7157 33.8911 84.3077 34.1071C83.8997 34.3151 83.4117 34.4191 82.8437 34.4191ZM82.8437 33.0991C83.2517 33.0991 83.5597 32.9911 83.7677 32.7751C83.9757 32.5511 84.0797 32.2351 84.0797 31.8271V28.0111C84.0797 27.5951 83.9757 27.2791 83.7677 27.0631C83.5597 26.8471 83.2517 26.7391 82.8437 26.7391C82.4357 26.7391 82.1277 26.8471 81.9197 27.0631C81.7117 27.2791 81.6077 27.5951 81.6077 28.0111V31.8271C81.6077 32.2351 81.7117 32.5511 81.9197 32.7751C82.1357 32.9911 82.4437 33.0991 82.8437 33.0991ZM90.039 34.4191C89.199 34.4191 88.539 34.1871 88.059 33.7231C87.579 33.2511 87.339 32.6111 87.339 31.8031V27.6991H88.839V31.7911C88.839 32.2151 88.943 32.5431 89.151 32.7751C89.359 32.9991 89.655 33.1111 90.039 33.1111C90.415 33.1111 90.707 32.9991 90.915 32.7751C91.131 32.5431 91.239 32.2151 91.239 31.7911V27.6991H92.739V31.8031C92.739 32.6111 92.495 33.2511 92.007 33.7231C91.519 34.1871 90.863 34.4191 90.039 34.4191ZM97.9543 34.2991C97.3223 34.2991 96.8263 34.1231 96.4663 33.7711C96.1143 33.4191 95.9383 32.9351 95.9383 32.3191V29.0551H94.1503V27.6991H95.9383V25.8391H97.4503V27.6991H99.9823V29.0551H97.4503V32.3191C97.4503 32.7351 97.6543 32.9431 98.0623 32.9431H99.8623V34.2991H97.9543Z" fill="black"/>
<path d="M29.5493 30.8824C30.3777 30.8824 31.0493 30.2108 31.0493 29.3824C31.0493 28.554 30.3777 27.8824 29.5493 27.8824L29.5493 30.8824ZM12.9393 28.3217C12.3535 28.9075 12.3535 29.8573 12.9393 30.443L22.4852 39.989C23.071 40.5748 24.0207 40.5748 24.6065 39.989C25.1923 39.4032 25.1923 38.4535 24.6065 37.8677L16.1213 29.3824L24.6065 20.8971C25.1923 20.3113 25.1923 19.3616 24.6065 18.7758C24.0207 18.19 23.071 18.19 22.4852 18.7758L12.9393 28.3217ZM29.5493 27.8824L13.9999 27.8824L13.9999 30.8824L29.5493 30.8824L29.5493 27.8824Z" fill="black"/>
<path d="M170.043 77.4233L170.043 77.4233L170.077 77.4573C170.268 77.6526 170.53 77.7632 170.805 77.7632H172.875C176.155 77.7632 178.813 75.1046 178.813 71.825V51.2263C178.813 50.2187 179.63 49.4019 180.638 49.4019C181.605 49.4019 182.404 50.1568 182.459 51.1226L183.725 73.3452C183.866 75.8248 185.918 77.7632 188.402 77.7632H190.743C191.274 77.7632 191.737 77.4369 191.929 76.9608L191.001 76.5876L191.929 76.9608C192.481 75.5863 193.291 74.3392 194.31 73.2901C195.328 72.2411 196.536 71.4106 197.863 70.8445C199.19 70.2785 200.611 69.9875 202.045 69.9875C203.48 69.9875 204.901 70.2785 206.228 70.8445C207.555 71.4106 208.763 72.2411 209.781 73.2901C210.8 74.3392 211.609 75.5863 212.162 76.9608C212.503 77.8073 212.304 78.5897 211.756 79.2074C211.186 79.8496 210.237 80.2991 209.172 80.2991H162.264C161.83 80.2991 161.462 80.1139 161.259 79.8839C161.078 79.6794 161.029 79.4586 161.136 79.2011C161.411 78.5361 161.813 77.932 162.32 77.4233C162.828 76.9146 163.43 76.5112 164.092 76.2361C164.755 75.9609 165.465 75.8193 166.182 75.8193C166.899 75.8193 167.609 75.9609 168.271 76.236C168.933 76.5112 169.536 76.9146 170.043 77.4233Z" fill="#0CAC56" stroke="black" stroke-width="2"/>
<path d="M156.884 77.4233L156.884 77.4233L156.917 77.4573C157.109 77.6525 157.371 77.7632 157.645 77.7632H159.716C162.995 77.7632 165.654 75.1046 165.654 71.825V62.7936C165.654 61.7566 166.495 60.9159 167.532 60.9159C168.499 60.9159 169.308 61.6512 169.401 62.6144L170.44 73.4509C170.674 75.8964 172.729 77.7632 175.186 77.7632H177.584C178.114 77.7632 178.578 77.4369 178.769 76.9608C179.322 75.5863 180.132 74.3392 181.151 73.2901C182.169 72.2411 183.377 71.4106 184.704 70.8445C186.031 70.2785 187.452 69.9875 188.886 69.9875C190.321 69.9875 191.742 70.2785 193.069 70.8445C194.396 71.4106 195.603 72.2411 196.622 73.2901L197.339 72.5935M156.884 77.4233L157.592 76.7172C156.992 76.1155 156.279 75.6382 155.495 75.3126C154.711 74.9869 153.871 74.8193 153.022 74.8193C152.174 74.8193 151.334 74.9869 150.55 75.3126C149.766 75.6382 149.053 76.1155 148.453 76.7172C147.853 77.3189 147.377 78.0332 147.052 78.8194C146.516 80.1181 147.7 81.2991 149.105 81.2991L196.013 81.2991C198.679 81.2991 200.926 79.0614 199.931 76.5877C199.33 75.0939 198.45 73.7367 197.339 72.5935M156.884 77.4233C156.376 76.9146 155.774 76.5112 155.112 76.2361C154.449 75.9609 153.739 75.8193 153.022 75.8193C152.306 75.8193 151.596 75.9609 150.933 76.2361C150.271 76.5112 149.669 76.9146 149.161 77.4233C148.654 77.932 148.251 78.5361 147.977 79.2012C147.87 79.4587 147.919 79.6794 148.1 79.8839C148.303 80.1139 148.671 80.2991 149.105 80.2991L196.013 80.2991C197.077 80.2991 198.027 79.8496 198.597 79.2074C199.145 78.5898 199.344 77.8073 199.003 76.9608C198.45 75.5863 197.641 74.3392 196.622 73.2901L197.339 72.5935M156.884 77.4233L197.339 72.5935" fill="#0CAC56" stroke="black" stroke-width="2"/>
<path d="M153.771 27.4548L154.629 27.3315V26.4649V23.8366C154.629 17.9659 159.363 13.215 165.194 13.215H184.47C188.171 13.215 191.18 16.2315 191.18 19.9627V26.4192V27.4192H192.18H201.575C204.701 27.4192 207.243 29.9669 207.243 33.1199C207.243 40.2821 201.466 46.0798 194.351 46.0798H185.47C184.365 46.0798 183.47 46.9753 183.47 48.0798V54.182C183.47 59.689 179.034 64.1464 173.568 64.1579L172.463 64.1096C168.514 63.9371 165.043 67.1092 165.359 71.1758C165.473 72.6454 165.655 74.1384 165.957 75.2844C166.105 75.8498 166.301 76.4032 166.576 76.8371C166.841 77.2534 167.328 77.7796 168.096 77.7796H170.341C170.873 77.7796 171.334 77.4511 171.524 76.9771C172.074 75.6078 172.879 74.3656 173.891 73.3207C174.904 72.2759 176.104 71.4488 177.423 70.8851C178.741 70.3215 180.153 70.0318 181.578 70.0318C183.003 70.0318 184.416 70.3215 185.734 70.8851C187.053 71.4488 188.253 72.2759 189.265 73.3207C190.278 74.3656 191.082 75.6078 191.632 76.9771C191.665 77.0601 191.698 77.1434 191.729 77.2269L191.729 77.227C192.023 78.0111 191.833 78.7322 191.329 79.2993C190.805 79.8885 189.939 80.2991 188.967 80.2991H142.016C141.59 80.2991 141.228 80.1162 141.028 79.8885C140.849 79.6859 140.801 79.4662 140.907 79.2094C141.18 78.5471 141.58 77.9455 142.084 77.4391C142.588 76.9326 143.186 76.5311 143.844 76.2573C144.502 75.9835 145.206 75.8426 145.918 75.8426C146.63 75.8426 147.335 75.9835 147.993 76.2573C148.651 76.5311 149.249 76.9326 149.753 77.4391L149.753 77.4392L149.786 77.4728L149.787 77.4735C149.977 77.6676 150.239 77.7796 150.515 77.7796H152.986C156.027 77.7796 158.484 75.3038 158.484 72.26V71.6144V70.6144H157.484H137.61C130.689 69.99 127 64.8821 127 61.2841V51.5994C127 47.5115 130.297 44.206 134.353 44.206H137.565C141.977 44.206 145.561 47.8006 145.561 52.245V54.5048C145.561 55.9183 144.422 57.0558 143.027 57.0558C141.632 57.0558 140.493 55.9183 140.493 54.5048L140.493 51.9222C140.493 50.483 139.331 49.3081 137.887 49.3081C136.443 49.3081 135.28 50.483 135.28 51.9222V56.1189C135.28 59.8758 138.313 62.9297 142.063 62.9297H146.561C151.021 62.9297 154.629 59.2977 154.629 54.8276V49.6337C154.629 47.5933 153.107 46.105 151.43 45.5158C150.244 45.0991 149.01 44.371 148.164 43.0223C147.318 41.6755 146.773 39.5732 147.23 36.2399L147.232 36.2289L147.233 36.2179C147.697 32.1797 148.929 30.1048 150.151 28.9945C151.378 27.8795 152.736 27.6035 153.771 27.4548ZM157.47 72.6144C157.29 74.9448 155.351 76.7796 152.986 76.7796H150.515C150.51 76.7796 150.505 76.7775 150.501 76.7738L150.462 76.7337C149.865 76.1341 149.157 75.6586 148.377 75.3341C147.598 75.0096 146.762 74.8426 145.918 74.8426C145.074 74.8426 144.239 75.0096 143.459 75.3341C142.68 75.6586 141.972 76.1341 141.375 76.7337C140.778 77.3332 140.305 78.045 139.982 78.8283C139.449 80.122 140.623 81.2991 142.016 81.2991H188.967C191.451 81.2991 193.54 79.2123 192.665 76.8762L157.47 72.6144Z" fill="#0CAC56" stroke="black" stroke-width="2"/>
<circle cx="161.775" cy="47.1682" r="2.8785" fill="#FB8510"/>
<circle cx="155.196" cy="32.3645" r="3.70093" fill="#FB8510"/>
<circle cx="157.663" cy="63.6168" r="3.70093" fill="#FB8510"/>
<circle cx="131.346" cy="61.1495" r="3.70093" fill="#FB8510"/>
<circle cx="172.467" cy="57.8598" r="3.70093" fill="#FB8510"/>
<rect x="159.075" y="1.70093" width="17.7383" height="30.8972" rx="8.86916" fill="white" stroke="black" stroke-width="2"/>
<rect x="159" y="7.70093" width="12.8037" height="21.028" rx="6.40187" fill="black" stroke="black" stroke-width="2"/>
<rect x="178.813" y="1.70093" width="17.7383" height="30.8972" rx="8.86916" fill="white" stroke="black" stroke-width="2"/>
<rect x="178.738" y="7.70093" width="12.8037" height="21.028" rx="6.40187" fill="black" stroke="black" stroke-width="2"/>
<path d="M165.931 77.4233L165.931 77.4233L165.964 77.4573C166.156 77.6526 166.418 77.7632 166.692 77.7632H168.763C172.042 77.7632 174.701 75.1046 174.701 71.825V51.2263C174.701 50.2187 175.518 49.4019 176.525 49.4019C177.493 49.4019 178.292 50.1568 178.347 51.1226L179.613 73.3452C179.754 75.8248 181.806 77.7632 184.29 77.7632H186.631C187.161 77.7632 187.625 77.4369 187.816 76.9608L186.889 76.5876L187.816 76.9608C188.369 75.5863 189.179 74.3392 190.197 73.2901C191.216 72.2411 192.424 71.4106 193.751 70.8445C195.078 70.2785 196.499 69.9875 197.933 69.9875C199.368 69.9875 200.789 70.2785 202.116 70.8445C203.443 71.4106 204.65 72.2411 205.669 73.2901C206.688 74.3392 207.497 75.5863 208.05 76.9608C208.39 77.8073 208.192 78.5897 207.644 79.2074C207.074 79.8496 206.124 80.2991 205.06 80.2991H158.152C157.718 80.2991 157.35 80.1139 157.147 79.8839C156.966 79.6794 156.917 79.4586 157.024 79.2011C157.298 78.5361 157.701 77.932 158.208 77.4233C158.715 76.9146 159.318 76.5112 159.98 76.2361C160.643 75.9609 161.352 75.8193 162.069 75.8193C162.786 75.8193 163.496 75.9609 164.159 76.236C164.821 76.5112 165.423 76.9146 165.931 77.4233Z" fill="#0CAC56" stroke="black" stroke-width="2"/>
<rect x="202.486" y="30.3084" width="1.64486" height="2.46729" rx="0.82243" fill="black"/>
<rect x="200.019" y="30.3084" width="1.64486" height="2.46729" rx="0.82243" fill="black"/>
<rect x="172.056" y="47.5794" width="8.2243" height="5.75701" fill="#0CAC56"/>
<circle cx="174.524" cy="53.3365" r="0.82243" fill="black"/>
<circle cx="178.635" cy="53.3365" r="0.82243" fill="black"/>
<circle cx="197.14" cy="74.3084" r="2.8785" fill="#FB8510"/>
</svg>

