<svg width="198" height="82" viewBox="0 0 198 82" fill="none" xmlns="http://www.w3.org/2000/svg">
<path d="M44.5429 77.4233L44.5429 77.4233L44.5765 77.4573C44.7678 77.6526 45.0301 77.7632 45.3045 77.7632H47.375C50.6546 77.7632 53.3132 75.1046 53.3132 71.825V51.2263C53.3132 50.2187 54.13 49.4019 55.1377 49.4019C56.105 49.4019 56.9042 50.1568 56.9592 51.1226L58.225 73.3452C58.3663 75.8248 60.4182 77.7632 62.9018 77.7632H65.2431C65.7736 77.7632 66.2371 77.4369 66.4286 76.9608L65.5009 76.5876L66.4286 76.9608C66.9815 75.5863 67.7911 74.3392 68.8097 73.2901C69.8284 72.2411 71.036 71.4106 72.363 70.8445C73.69 70.2785 75.1111 69.9875 76.5455 69.9875C77.9799 69.9875 79.401 70.2785 80.728 70.8445C82.0549 71.4106 83.2626 72.2411 84.2812 73.2901C85.2999 74.3392 86.1095 75.5863 86.6623 76.9608C87.0028 77.8073 86.804 78.5897 86.2561 79.2074C85.6864 79.8496 84.7366 80.2991 83.6723 80.2991H36.764C36.3303 80.2991 35.9622 80.1139 35.7589 79.8839C35.5781 79.6794 35.5295 79.4586 35.6359 79.2011C35.9106 78.5361 36.3131 77.932 36.8205 77.4233C37.3278 76.9146 37.9299 76.5112 38.5924 76.2361C39.2548 75.9609 39.9648 75.8193 40.6817 75.8193C41.3986 75.8193 42.1085 75.9609 42.771 76.236C43.4334 76.5112 44.0356 76.9146 44.5429 77.4233Z" fill="#0CAC56" stroke="black" strokeWidth="2"/>
<path d="M31.3837 77.4233L31.3837 77.4233L31.4173 77.4573C31.6085 77.6524 31.8707 77.7632 32.1453 77.7632H34.2158C37.4954 77.7632 40.154 75.1046 40.154 71.825V62.7936C40.154 61.7566 40.9947 60.9159 42.0317 60.9159C42.9993 60.9159 43.8085 61.6512 43.9008 62.6143L44.9399 73.4509C45.1744 75.8963 47.2289 77.7632 49.6856 77.7632H52.0839C52.6145 77.7632 53.078 77.4369 53.2695 76.9608C53.8223 75.5863 54.6319 74.3392 55.6506 73.2901C56.6692 72.2411 57.8769 71.4106 59.2039 70.8445C60.5308 70.2785 61.9519 69.9875 63.3863 69.9875C64.8207 69.9875 66.2419 70.2785 67.5688 70.8445C68.8958 71.4106 70.1034 72.2411 71.1221 73.2901L71.8395 72.5935M31.3837 77.4233L32.0918 76.7172C31.4917 76.1155 30.7794 75.6382 29.9954 75.3125C29.2114 74.9869 28.3711 74.8193 27.5225 74.8193C26.6739 74.8193 25.8336 74.9869 25.0496 75.3125C24.2656 75.6382 23.5533 76.1155 22.9532 76.7172C22.3532 77.3189 21.8772 78.0332 21.5524 78.8194C21.016 80.1181 22.1996 81.2991 23.6048 81.2991L70.5131 81.2991C73.1794 81.2991 75.4259 79.0614 74.4309 76.5876C73.8302 75.0939 72.9496 73.7367 71.8395 72.5935M31.3837 77.4233C30.8764 76.9146 30.2743 76.5112 29.6118 76.2361C28.9493 75.9609 28.2394 75.8193 27.5225 75.8193C26.8056 75.8193 26.0957 75.9609 25.4332 76.2361C24.7707 76.5112 24.1686 76.9146 23.6613 77.4233C23.154 77.932 22.7514 78.5361 22.4767 79.2011C22.3703 79.4586 22.419 79.6794 22.5997 79.8839C22.803 80.1139 23.1711 80.2991 23.6048 80.2991L70.5131 80.2991C71.5774 80.2991 72.5272 79.8496 73.0969 79.2074C73.6448 78.5897 73.8436 77.8073 73.5032 76.9608C72.9503 75.5863 72.1408 74.3392 71.1221 73.2901L71.8395 72.5935M31.3837 77.4233L71.8395 72.5935" fill="#0CAC56" stroke="black" strokeWidth="2"/>
<path d="M28.2708 27.4548L29.1285 27.3315V26.4649V23.8366C29.1285 17.9658 33.8634 13.215 39.6939 13.215H58.9696C62.671 13.215 65.6799 16.2314 65.6799 19.9627V26.4192V27.4192H66.6799H76.0746C79.2006 27.4192 81.743 29.9669 81.743 33.1199C81.743 40.2821 75.9663 46.0798 68.8506 46.0798H59.9696C58.8651 46.0798 57.9696 46.9753 57.9696 48.0798V54.1819C57.9696 59.6889 53.534 64.1463 48.068 64.1579L46.9632 64.1096C43.0142 63.9371 39.5435 67.1092 39.8589 71.1758C39.9729 72.6454 40.1552 74.1384 40.4566 75.2844C40.6053 75.8498 40.8009 76.4032 41.0765 76.8371C41.3408 77.2534 41.8281 77.7795 42.5961 77.7795H44.8405C45.3727 77.7795 45.8342 77.4511 46.0244 76.9771C46.574 75.6078 47.3788 74.3656 48.3913 73.3207C49.4037 72.2758 50.6039 71.4488 51.9225 70.8851C53.241 70.3215 54.6531 70.0318 56.0783 70.0318C57.5035 70.0318 58.9155 70.3215 60.234 70.8851C61.5526 71.4488 62.7528 72.2758 63.7653 73.3207C64.7777 74.3656 65.5825 75.6078 66.1321 76.977C66.1654 77.0601 66.1977 77.1434 66.229 77.2269L66.229 77.227C66.5227 78.0111 66.3328 78.7322 65.8287 79.2992C65.3048 79.8884 64.4388 80.2991 63.4673 80.2991H16.5162C16.09 80.2991 15.7278 80.1162 15.5275 79.8884C15.3494 79.6859 15.3008 79.4662 15.4066 79.2094C15.6796 78.547 16.0797 77.9455 16.5837 77.4391C17.0877 76.9326 17.6858 76.5311 18.3437 76.2573C19.0015 75.9835 19.7064 75.8426 20.4182 75.8426C21.13 75.8426 21.8349 75.9835 22.4928 76.2573C23.1507 76.5311 23.7487 76.9326 24.2527 77.4391L24.2529 77.4392L24.286 77.4728L24.2867 77.4734C24.4768 77.6676 24.7385 77.7795 25.0148 77.7795H27.486C30.5268 77.7795 32.9836 75.3038 32.9836 72.26V71.6144V70.6144H31.9836H12.1097C5.18905 69.99 1.5 64.8821 1.5 61.284V51.5994C1.5 47.5115 4.79653 44.206 8.8528 44.206H12.0654C16.4766 44.206 20.0607 47.8006 20.0607 52.245V54.5048C20.0607 55.9182 18.9217 57.0558 17.5269 57.0558C16.132 57.0558 14.993 55.9182 14.993 54.5048L14.993 51.9222C14.993 50.483 13.8307 49.3081 12.3867 49.3081C10.9427 49.3081 9.78037 50.483 9.78037 51.9222V56.1189C9.78037 59.8758 12.8125 62.9297 16.5631 62.9297H21.0607C25.521 62.9297 29.1285 59.2977 29.1285 54.8276V49.6337C29.1285 47.5932 27.6072 46.105 25.9302 45.5158C24.7442 45.099 23.5104 44.371 22.6636 43.0223C21.8179 41.6754 21.2727 39.5732 21.7302 36.2398L21.7317 36.2289L21.733 36.2179C22.1967 32.1796 23.4285 30.1048 24.6505 28.9945C25.8777 27.8795 27.2359 27.6035 28.2708 27.4548ZM31.97 72.6144C31.7902 74.9448 29.8513 76.7795 27.486 76.7795H25.0148C25.0097 76.7795 25.0047 76.7775 25.0011 76.7738L24.9615 76.7337C24.3649 76.1341 23.6566 75.6585 22.8771 75.3341C22.0975 75.0096 21.262 74.8426 20.4182 74.8426C19.5744 74.8426 18.7389 75.0096 17.9594 75.3341C17.1798 75.6585 16.4715 76.1341 15.8749 76.7337C15.2783 77.3332 14.805 78.045 14.4821 78.8283C13.9488 80.122 15.1227 81.2991 16.5162 81.2991H63.4673C65.9513 81.2991 68.0405 79.2123 67.1655 76.8762L31.97 72.6144Z" fill="#0CAC56" stroke="black" strokeWidth="2"/>
<circle cx="36.2755" cy="47.1682" r="2.8785" fill="#FB8510"/>
<circle cx="29.6961" cy="32.3645" r="3.70093" fill="#FB8510"/>
<circle cx="32.1633" cy="63.6168" r="3.70093" fill="#FB8510"/>
<circle cx="5.84595" cy="61.1495" r="3.70093" fill="#FB8510"/>
<circle cx="46.967" cy="57.8598" r="3.70093" fill="#FB8510"/>
<rect x="33.5747" y="1.70093" width="17.7383" height="30.8972" rx="8.86916" fill="white" stroke="black" strokeWidth="2"/>
<rect x="38.5" y="8.70093" width="12.8037" height="21.028" rx="6.40187" fill="black" stroke="black" strokeWidth="2"/>
<rect x="53.313" y="1.70094" width="17.7383" height="30.8972" rx="8.86916" fill="white" stroke="black" strokeWidth="2"/>
<rect x="58.2383" y="8.70093" width="12.8037" height="21.028" rx="6.40187" fill="black" stroke="black" strokeWidth="2"/>
<path d="M40.4306 77.4233L40.4306 77.4233L40.4642 77.4573C40.6555 77.6526 40.9178 77.7632 41.1922 77.7632H43.2627C46.5423 77.7632 49.2009 75.1046 49.2009 71.825V51.2263C49.2009 50.2187 50.0177 49.4019 51.0254 49.4019C51.9927 49.4019 52.7919 50.1568 52.8469 51.1226L54.1127 73.3452C54.254 75.8248 56.3059 77.7632 58.7895 77.7632H61.1308C61.6613 77.7632 62.1248 77.4369 62.3163 76.9608L61.3886 76.5876L62.3163 76.9608C62.8692 75.5863 63.6787 74.3392 64.6974 73.2901C65.7161 72.2411 66.9237 71.4106 68.2507 70.8445C69.5776 70.2785 70.9988 69.9875 72.4332 69.9875C73.8676 69.9875 75.2887 70.2785 76.6156 70.8445C77.9426 71.4106 79.1503 72.2411 80.1689 73.2901C81.1876 74.3392 81.9972 75.5863 82.55 76.9608C82.8905 77.8073 82.6917 78.5897 82.1438 79.2074C81.5741 79.8496 80.6243 80.2991 79.56 80.2991H32.6516C32.218 80.2991 31.8499 80.1139 31.6466 79.8839C31.4658 79.6794 31.4172 79.4586 31.5236 79.2011C31.7983 78.5361 32.2008 77.932 32.7082 77.4233C33.2155 76.9146 33.8176 76.5112 34.4801 76.2361C35.1425 75.9609 35.8525 75.8193 36.5694 75.8193C37.2863 75.8193 37.9962 75.9609 38.6587 76.236C39.3211 76.5112 39.9233 76.9146 40.4306 77.4233Z" fill="#0CAC56" stroke="black" strokeWidth="2"/>
<rect x="76.9858" y="30.3084" width="1.64486" height="2.46729" rx="0.82243" fill="black"/>
<rect x="74.5186" y="30.3084" width="1.64486" height="2.46729" rx="0.82243" fill="black"/>
<rect x="46.5562" y="47.5794" width="8.2243" height="5.75701" fill="#0CAC56"/>
<circle cx="49.0236" cy="53.3364" r="0.82243" fill="black"/>
<circle cx="53.1354" cy="53.3364" r="0.82243" fill="black"/>
<circle cx="71.6402" cy="74.3084" r="2.8785" fill="#FB8510"/>
<path d="M130.5 7.29906C130.5 5.6422 131.843 4.29906 133.5 4.29906C135.157 4.29906 136.5 5.6422 136.5 7.29906V80.2991H130.5V7.29906Z" fill="black" stroke="black" strokeWidth="2"/>
<path d="M193.013 26.7838C194.764 28.7605 194.676 31.7581 192.812 33.6286L182.823 43.652C181.134 45.3466 178.84 46.2991 176.448 46.2991H98.5C95.7386 46.2991 93.5 44.0605 93.5 41.2991V17.2991C93.5 14.5376 95.7386 12.2991 98.5 12.2991H176.131C178.707 12.2991 181.16 13.403 182.868 15.3313L183.617 14.6682L182.868 15.3313L193.013 26.7838Z" fill="#FB8510" stroke="black" strokeWidth="2"/>
<path d="M103.867 33.4407C103.307 33.4407 102.815 33.3367 102.391 33.1287C101.975 32.9127 101.651 32.6127 101.419 32.2287C101.195 31.8367 101.083 31.3767 101.083 30.8487V27.0327C101.083 26.4967 101.195 26.0367 101.419 25.6527C101.651 25.2687 101.975 24.9727 102.391 24.7647C102.815 24.5487 103.307 24.4407 103.867 24.4407C104.435 24.4407 104.923 24.5487 105.331 24.7647C105.747 24.9727 106.071 25.2687 106.303 25.6527C106.535 26.0367 106.651 26.4967 106.651 27.0327H105.139C105.139 26.6167 105.027 26.3007 104.803 26.0847C104.587 25.8687 104.275 25.7607 103.867 25.7607C103.459 25.7607 103.143 25.8687 102.919 26.0847C102.695 26.3007 102.583 26.6127 102.583 27.0207V30.8487C102.583 31.2567 102.695 31.5727 102.919 31.7967C103.143 32.0127 103.459 32.1207 103.867 32.1207C104.275 32.1207 104.587 32.0127 104.803 31.7967C105.027 31.5727 105.139 31.2567 105.139 30.8487H106.651C106.651 31.3687 106.535 31.8247 106.303 32.2167C106.071 32.6087 105.747 32.9127 105.331 33.1287C104.923 33.3367 104.435 33.4407 103.867 33.4407ZM108.338 33.3207V24.5607H109.838V26.7207L109.802 27.9807H110.21L109.802 28.3287C109.802 27.7847 109.958 27.3607 110.27 27.0567C110.59 26.7527 111.026 26.6007 111.578 26.6007C112.226 26.6007 112.742 26.8167 113.126 27.2487C113.518 27.6807 113.714 28.2607 113.714 28.9887V33.3207H112.214V29.1447C112.214 28.7447 112.11 28.4367 111.902 28.2207C111.694 28.0047 111.402 27.8967 111.026 27.8967C110.658 27.8967 110.366 28.0087 110.15 28.2327C109.942 28.4567 109.838 28.7767 109.838 29.1927V33.3207H108.338ZM118.221 33.4407C117.661 33.4407 117.173 33.3327 116.757 33.1167C116.341 32.9007 116.017 32.6007 115.785 32.2167C115.561 31.8247 115.449 31.3687 115.449 30.8487V29.1927C115.449 28.6727 115.561 28.2207 115.785 27.8367C116.017 27.4447 116.341 27.1407 116.757 26.9247C117.173 26.7087 117.661 26.6007 118.221 26.6007C118.773 26.6007 119.253 26.7087 119.661 26.9247C120.077 27.1407 120.397 27.4447 120.621 27.8367C120.853 28.2207 120.969 28.6727 120.969 29.1927V30.3807H116.901V30.8487C116.901 31.3127 117.013 31.6647 117.237 31.9047C117.461 32.1367 117.793 32.2527 118.233 32.2527C118.569 32.2527 118.841 32.1967 119.049 32.0847C119.257 31.9647 119.389 31.7927 119.445 31.5687H120.921C120.809 32.1367 120.505 32.5927 120.009 32.9367C119.521 33.2727 118.925 33.4407 118.221 33.4407ZM119.517 29.5407V29.1807C119.517 28.7247 119.409 28.3767 119.193 28.1367C118.977 27.8887 118.653 27.7647 118.221 27.7647C117.789 27.7647 117.461 27.8887 117.237 28.1367C117.013 28.3847 116.901 28.7367 116.901 29.1927V29.4447L119.625 29.4207L119.517 29.5407ZM125.441 33.4407C124.881 33.4407 124.389 33.3367 123.965 33.1287C123.549 32.9127 123.225 32.6127 122.993 32.2287C122.761 31.8367 122.645 31.3767 122.645 30.8487V29.1927C122.645 28.6567 122.761 28.1967 122.993 27.8127C123.225 27.4287 123.549 27.1327 123.965 26.9247C124.389 26.7087 124.881 26.6007 125.441 26.6007C126.273 26.6007 126.937 26.8167 127.433 27.2487C127.929 27.6727 128.189 28.2527 128.213 28.9887H126.713C126.689 28.6447 126.565 28.3807 126.341 28.1967C126.125 28.0047 125.825 27.9087 125.441 27.9087C125.041 27.9087 124.725 28.0207 124.493 28.2447C124.261 28.4607 124.145 28.7727 124.145 29.1807V30.8487C124.145 31.2567 124.261 31.5727 124.493 31.7967C124.725 32.0207 125.041 32.1327 125.441 32.1327C125.825 32.1327 126.125 32.0407 126.341 31.8567C126.565 31.6647 126.689 31.3967 126.713 31.0527H128.213C128.189 31.7887 127.929 32.3727 127.433 32.8047C126.937 33.2287 126.273 33.4407 125.441 33.4407ZM129.96 33.3207V24.5607H131.46V29.3127H132.504L134.112 26.7207H135.792L133.8 29.9127L135.828 33.3207H134.112L132.504 30.5847H131.46V33.3207H129.96ZM144.471 33.3207V32.0007H146.235V25.8807H144.471V24.5607H149.511V25.8807H147.747V32.0007H149.511V33.3207H144.471ZM151.51 33.3207V26.7207H152.974V27.9807H153.382L152.974 28.3287C152.974 27.7847 153.13 27.3607 153.442 27.0567C153.762 26.7527 154.198 26.6007 154.75 26.6007C155.398 26.6007 155.914 26.8167 156.298 27.2487C156.69 27.6807 156.886 28.2607 156.886 28.9887V33.3207H155.386V29.1447C155.386 28.7447 155.282 28.4367 155.074 28.2207C154.866 28.0047 154.574 27.8967 154.198 27.8967C153.83 27.8967 153.538 28.0087 153.322 28.2327C153.114 28.4567 153.01 28.7767 153.01 29.1927V33.3207H151.51Z" fill="black"/>
<path d="M167.454 27.5892C166.625 27.5892 165.954 28.2608 165.954 29.0892C165.954 29.9176 166.625 30.5892 167.454 30.5892L167.454 27.5892ZM184.064 30.1499C184.649 29.5641 184.649 28.6143 184.064 28.0286L174.518 18.4826C173.932 17.8968 172.982 17.8968 172.396 18.4826C171.811 19.0684 171.811 20.0182 172.396 20.6039L180.882 29.0892L172.396 37.5745C171.811 38.1603 171.811 39.11 172.396 39.6958C172.982 40.2816 173.932 40.2816 174.518 39.6958L184.064 30.1499ZM167.454 30.5892L183.003 30.5892L183.003 27.5892L167.454 27.5892L167.454 30.5892Z" fill="black"/>
</svg>
