<svg width="214" height="81" viewBox="0 0 214 81" fill="none" xmlns="http://www.w3.org/2000/svg">
<path d="M44.0428 76.7224L44.0428 76.7224L44.0764 76.7564C44.2677 76.9517 44.53 77.0623 44.8044 77.0623H46.8749C50.1545 77.0623 52.8131 74.4037 52.8131 71.1241V50.5254C52.8131 49.5178 53.6299 48.7009 54.6376 48.7009C55.6049 48.7009 56.4041 49.4559 56.4591 50.4217L57.7249 72.6443C57.8662 75.1239 59.9181 77.0623 62.4017 77.0623H64.743C65.2735 77.0623 65.737 76.736 65.9285 76.2599L65.0008 75.8867L65.9286 76.2599C66.4814 74.8853 67.291 73.6383 68.3096 72.5892C69.3283 71.5402 70.5359 70.7096 71.8629 70.1436C73.1899 69.5775 74.611 69.2866 76.0454 69.2866C77.4798 69.2866 78.9009 69.5775 80.2279 70.1436C81.5548 70.7096 82.7625 71.5402 83.7811 72.5892C84.7998 73.6383 85.6094 74.8853 86.1622 76.2599C86.5027 77.1063 86.3039 77.8888 85.756 78.5065C85.1863 79.1487 84.2365 79.5981 83.1722 79.5981H36.2639C35.8302 79.5981 35.4621 79.4129 35.2588 79.183C35.078 78.9785 35.0294 78.7577 35.1358 78.5002C35.4105 77.8352 35.813 77.2311 36.3204 76.7224C36.8277 76.2137 37.4298 75.8103 38.0923 75.5351C38.7548 75.26 39.4647 75.1184 40.1816 75.1184C40.8985 75.1184 41.6084 75.26 42.2709 75.5351C42.9333 75.8103 43.5355 76.2137 44.0428 76.7224Z" fill="#0CAC56" stroke="black" stroke-width="2"/>
<path d="M30.8839 76.7224L30.8839 76.7224L30.9175 76.7564C31.1087 76.9515 31.3709 77.0623 31.6455 77.0623H33.716C36.9956 77.0623 39.6542 74.4037 39.6542 71.1241V62.0927C39.6542 61.0556 40.4949 60.215 41.5319 60.215C42.4995 60.215 43.3087 60.9503 43.401 61.9134L44.4401 72.7499C44.6746 75.1954 46.7291 77.0623 49.1858 77.0623H51.5841C52.1147 77.0623 52.5782 76.736 52.7697 76.2599C53.3225 74.8854 54.1321 73.6383 55.1508 72.5892C56.1694 71.5402 57.3771 70.7097 58.7041 70.1436C60.031 69.5775 61.4521 69.2866 62.8865 69.2866C64.3209 69.2866 65.7421 69.5775 67.069 70.1436C68.396 70.7096 69.6036 71.5402 70.6223 72.5892L71.3397 71.8926M30.8839 76.7224L31.592 76.0163C30.9919 75.4146 30.2796 74.9373 29.4956 74.6116C28.7116 74.286 27.8713 74.1184 27.0227 74.1184C26.1741 74.1184 25.3338 74.286 24.5498 74.6116C23.7658 74.9373 23.0535 75.4146 22.4534 76.0163C21.8534 76.618 21.3774 77.3323 21.0526 78.1184C20.5162 79.4171 21.6998 80.5981 23.105 80.5981L70.0133 80.5981C72.6796 80.5981 74.9261 78.3605 73.9311 75.8867C73.3304 74.393 72.4498 73.0358 71.3397 71.8926M30.8839 76.7224C30.3766 76.2137 29.7745 75.8103 29.112 75.5351C28.4495 75.26 27.7396 75.1184 27.0227 75.1184C26.3058 75.1184 25.5959 75.26 24.9334 75.5351C24.2709 75.8103 23.6688 76.2137 23.1615 76.7224C22.6542 77.2311 22.2516 77.8352 21.9769 78.5002C21.8705 78.7577 21.9192 78.9785 22.0999 79.183C22.3032 79.413 22.6713 79.5981 23.105 79.5981L70.0133 79.5981C71.0776 79.5981 72.0274 79.1487 72.5971 78.5065C73.145 77.8888 73.3438 77.1063 73.0034 76.2599C72.4505 74.8854 71.641 73.6383 70.6223 72.5892L71.3397 71.8926M30.8839 76.7224L71.3397 71.8926" fill="#0CAC56" stroke="black" stroke-width="2"/>
<path d="M27.7708 26.7538L28.6285 26.6306V25.764V23.1357C28.6285 17.2649 33.3634 12.514 39.1939 12.514H58.4696C62.171 12.514 65.1799 15.5305 65.1799 19.2618V25.7182V26.7182H66.1799H75.5746C78.7006 26.7182 81.243 29.266 81.243 32.419C81.243 39.5811 75.4663 45.3789 68.3506 45.3789H59.4696C58.3651 45.3789 57.4696 46.2744 57.4696 47.3789V53.481C57.4696 58.988 53.034 63.4454 47.568 63.457L46.4632 63.4087C42.5142 63.2362 39.0435 66.4083 39.3589 70.4749C39.4729 71.9445 39.6552 73.4375 39.9566 74.5835C40.1053 75.1488 40.3009 75.7023 40.5765 76.1362C40.8408 76.5525 41.3281 77.0786 42.0961 77.0786H44.3405C44.8727 77.0786 45.3342 76.7502 45.5244 76.2762C46.074 74.9069 46.8788 73.6647 47.8913 72.6198C48.9037 71.5749 50.1039 70.7479 51.4225 70.1842C52.741 69.6205 54.1531 69.3309 55.5783 69.3309C57.0035 69.3309 58.4155 69.6205 59.734 70.1842C61.0526 70.7479 62.2528 71.5749 63.2653 72.6198C64.2777 73.6647 65.0825 74.9068 65.6321 76.2761C65.6654 76.3592 65.6977 76.4425 65.729 76.526L65.729 76.5261C66.0227 77.3102 65.8328 78.0313 65.3287 78.5983C64.8048 79.1875 63.9388 79.5982 62.9673 79.5982H16.0162C15.59 79.5982 15.2278 79.4153 15.0275 79.1875C14.8494 78.985 14.8008 78.7653 14.9066 78.5085C15.1796 77.8461 15.5797 77.2446 16.0837 76.7381C16.5877 76.2317 17.1858 75.8302 17.8437 75.5564C18.5015 75.2826 19.2064 75.1417 19.9182 75.1417C20.63 75.1417 21.3349 75.2826 21.9928 75.5564C22.6507 75.8302 23.2487 76.2317 23.7527 76.7381L23.7529 76.7383L23.786 76.7719L23.7867 76.7725C23.9768 76.9667 24.2385 77.0786 24.5148 77.0786H26.986C30.0268 77.0786 32.4836 74.6029 32.4836 71.5591V70.9135V69.9135H31.4836H11.6097C4.68905 69.2891 1 64.1811 1 60.5831V50.8984C1 46.8106 4.29653 43.505 8.3528 43.505H11.5654C15.9766 43.505 19.5607 47.0997 19.5607 51.5441V53.8038C19.5607 55.2173 18.4217 56.3549 17.0269 56.3549C15.632 56.3549 14.493 55.2173 14.493 53.8038L14.493 51.2213C14.493 49.7821 13.3307 48.6072 11.8867 48.6072C10.4427 48.6072 9.28037 49.7821 9.28037 51.2213V55.418C9.28037 59.1749 12.3125 62.2288 16.0631 62.2288H20.5607C25.021 62.2288 28.6285 58.5968 28.6285 54.1267V48.9328C28.6285 46.8923 27.1072 45.4041 25.4302 44.8149C24.2442 44.3981 23.0104 43.6701 22.1636 42.3214C21.3179 40.9745 20.7727 38.8723 21.2302 35.5389L21.2317 35.528L21.233 35.517C21.6967 31.4787 22.9285 29.4039 24.1505 28.2936C25.3777 27.1785 26.7359 26.9026 27.7708 26.7538ZM31.47 71.9135C31.2902 74.2439 29.3513 76.0786 26.986 76.0786H24.5148C24.5097 76.0786 24.5047 76.0766 24.5011 76.0729L24.4615 76.0328C23.8649 75.4332 23.1566 74.9576 22.3771 74.6332C21.5975 74.3087 20.762 74.1417 19.9182 74.1417C19.0744 74.1417 18.2389 74.3087 17.4594 74.6332C16.6798 74.9576 15.9715 75.4332 15.3749 76.0328C14.7783 76.6323 14.305 77.344 13.9821 78.1274C13.4488 79.4211 14.6227 80.5982 16.0162 80.5982H62.9673C65.4513 80.5982 67.5405 78.5114 66.6655 76.1753L31.47 71.9135Z" fill="#0CAC56" stroke="black" stroke-width="2"/>
<circle cx="35.7757" cy="46.4673" r="2.8785" fill="#FB8510"/>
<circle cx="29.1963" cy="31.6636" r="3.70093" fill="#FB8510"/>
<circle cx="31.6636" cy="62.9159" r="3.70093" fill="#FB8510"/>
<circle cx="5.3458" cy="60.4486" r="3.70093" fill="#FB8510"/>
<circle cx="46.4673" cy="57.1588" r="3.70093" fill="#FB8510"/>
<rect x="33.0748" y="1" width="17.7383" height="30.8972" rx="8.86916" fill="white" stroke="black" stroke-width="2"/>
<rect x="38" y="8" width="12.8037" height="21.028" rx="6.40187" fill="black" stroke="black" stroke-width="2"/>
<rect x="52.8131" y="1" width="17.7383" height="30.8972" rx="8.86916" fill="white" stroke="black" stroke-width="2"/>
<rect x="57.7383" y="8" width="12.8037" height="21.028" rx="6.40187" fill="black" stroke="black" stroke-width="2"/>
<path d="M39.9306 76.7224L39.9307 76.7224L39.9643 76.7564C40.1556 76.9517 40.4178 77.0623 40.6923 77.0623H42.7627C46.0423 77.0623 48.7009 74.4037 48.7009 71.1241V50.5254C48.7009 49.5178 49.5178 48.7009 50.5254 48.7009C51.4927 48.7009 52.2919 49.4559 52.3469 50.4217L53.6128 72.6443C53.754 75.1239 55.8059 77.0623 58.2896 77.0623H60.6308C61.1614 77.0623 61.6249 76.736 61.8164 76.2599L60.8886 75.8867L61.8164 76.2599C62.3692 74.8853 63.1788 73.6383 64.1975 72.5892C65.2161 71.5402 66.4238 70.7096 67.7508 70.1436C69.0777 69.5775 70.4988 69.2866 71.9332 69.2866C73.3677 69.2866 74.7888 69.5775 76.1157 70.1436C77.4427 70.7096 78.6504 71.5402 79.669 72.5892C80.6877 73.6383 81.4972 74.8853 82.0501 76.2599C82.3905 77.1063 82.1917 77.8888 81.6438 78.5065C81.0742 79.1487 80.1243 79.5981 79.06 79.5981H32.1517C31.718 79.5981 31.3499 79.4129 31.1467 79.183C30.9659 78.9785 30.9172 78.7577 31.0236 78.5002C31.2983 77.8352 31.7009 77.2311 32.2082 76.7224C32.7155 76.2137 33.3176 75.8103 33.9801 75.5351C34.6426 75.26 35.3525 75.1184 36.0694 75.1184C36.7863 75.1184 37.4963 75.26 38.1587 75.5351C38.8212 75.8103 39.4233 76.2137 39.9306 76.7224Z" fill="#0CAC56" stroke="black" stroke-width="2"/>
<rect x="76.486" y="29.6074" width="1.64486" height="2.46729" rx="0.82243" fill="black"/>
<rect x="74.0187" y="29.6074" width="1.64486" height="2.46729" rx="0.82243" fill="black"/>
<rect x="46.0561" y="46.8785" width="8.2243" height="5.75701" fill="#0CAC56"/>
<circle cx="48.5234" cy="52.6355" r="0.82243" fill="black"/>
<circle cx="52.6355" cy="52.6355" r="0.82243" fill="black"/>
<circle cx="71.1402" cy="73.6075" r="2.8785" fill="#FB8510"/>
<path d="M96.2593 30.4864C96.2593 22.2949 102.9 15.6543 111.091 15.6543H198.168C206.359 15.6543 213 22.2949 213 30.4864C213 43.0499 202.815 53.2345 190.252 53.2345H119.007C106.444 53.2345 96.2593 43.0499 96.2593 30.4864Z" fill="black" stroke="black" stroke-width="2"/>
<rect x="96" y="10" width="116.741" height="37.5802" rx="18.7901" fill="#FB8510" stroke="black" stroke-width="2"/>
<path d="M117.367 33.1416C116.807 33.1416 116.315 33.0376 115.891 32.8296C115.475 32.6136 115.151 32.3136 114.919 31.9296C114.695 31.5376 114.583 31.0776 114.583 30.5496V26.7336C114.583 26.1976 114.695 25.7376 114.919 25.3536C115.151 24.9696 115.475 24.6736 115.891 24.4656C116.315 24.2496 116.807 24.1416 117.367 24.1416C117.935 24.1416 118.423 24.2496 118.831 24.4656C119.247 24.6736 119.571 24.9696 119.803 25.3536C120.035 25.7376 120.151 26.1976 120.151 26.7336H118.639C118.639 26.3176 118.527 26.0016 118.303 25.7856C118.087 25.5696 117.775 25.4616 117.367 25.4616C116.959 25.4616 116.643 25.5696 116.419 25.7856C116.195 26.0016 116.083 26.3136 116.083 26.7216V30.5496C116.083 30.9576 116.195 31.2736 116.419 31.4976C116.643 31.7136 116.959 31.8216 117.367 31.8216C117.775 31.8216 118.087 31.7136 118.303 31.4976C118.527 31.2736 118.639 30.9576 118.639 30.5496H120.151C120.151 31.0696 120.035 31.5256 119.803 31.9176C119.571 32.3096 119.247 32.6136 118.831 32.8296C118.423 33.0376 117.935 33.1416 117.367 33.1416ZM121.838 33.0216V24.2616H123.338V26.4216L123.302 27.6816H123.71L123.302 28.0296C123.302 27.4856 123.458 27.0616 123.77 26.7576C124.09 26.4536 124.526 26.3016 125.078 26.3016C125.726 26.3016 126.242 26.5176 126.626 26.9496C127.018 27.3816 127.214 27.9616 127.214 28.6896V33.0216H125.714V28.8456C125.714 28.4456 125.61 28.1376 125.402 27.9216C125.194 27.7056 124.902 27.5976 124.526 27.5976C124.158 27.5976 123.866 27.7096 123.65 27.9336C123.442 28.1576 123.338 28.4776 123.338 28.8936V33.0216H121.838ZM131.721 33.1416C131.161 33.1416 130.673 33.0336 130.257 32.8176C129.841 32.6016 129.517 32.3016 129.285 31.9176C129.061 31.5256 128.949 31.0696 128.949 30.5496V28.8936C128.949 28.3736 129.061 27.9216 129.285 27.5376C129.517 27.1456 129.841 26.8416 130.257 26.6256C130.673 26.4096 131.161 26.3016 131.721 26.3016C132.273 26.3016 132.753 26.4096 133.161 26.6256C133.577 26.8416 133.897 27.1456 134.121 27.5376C134.353 27.9216 134.469 28.3736 134.469 28.8936V30.0816H130.401V30.5496C130.401 31.0136 130.513 31.3656 130.737 31.6056C130.961 31.8376 131.293 31.9536 131.733 31.9536C132.069 31.9536 132.341 31.8976 132.549 31.7856C132.757 31.6656 132.889 31.4936 132.945 31.2696H134.421C134.309 31.8376 134.005 32.2936 133.509 32.6376C133.021 32.9736 132.425 33.1416 131.721 33.1416ZM133.017 29.2416V28.8816C133.017 28.4256 132.909 28.0776 132.693 27.8376C132.477 27.5896 132.153 27.4656 131.721 27.4656C131.289 27.4656 130.961 27.5896 130.737 27.8376C130.513 28.0856 130.401 28.4376 130.401 28.8936V29.1456L133.125 29.1216L133.017 29.2416ZM138.941 33.1416C138.381 33.1416 137.889 33.0376 137.465 32.8296C137.049 32.6136 136.725 32.3136 136.493 31.9296C136.261 31.5376 136.145 31.0776 136.145 30.5496V28.8936C136.145 28.3576 136.261 27.8976 136.493 27.5136C136.725 27.1296 137.049 26.8336 137.465 26.6256C137.889 26.4096 138.381 26.3016 138.941 26.3016C139.773 26.3016 140.437 26.5176 140.933 26.9496C141.429 27.3736 141.689 27.9536 141.713 28.6896H140.213C140.189 28.3456 140.065 28.0816 139.841 27.8976C139.625 27.7056 139.325 27.6096 138.941 27.6096C138.541 27.6096 138.225 27.7216 137.993 27.9456C137.761 28.1616 137.645 28.4736 137.645 28.8816V30.5496C137.645 30.9576 137.761 31.2736 137.993 31.4976C138.225 31.7216 138.541 31.8336 138.941 31.8336C139.325 31.8336 139.625 31.7416 139.841 31.5576C140.065 31.3656 140.189 31.0976 140.213 30.7536H141.713C141.689 31.4896 141.429 32.0736 140.933 32.5056C140.437 32.9296 139.773 33.1416 138.941 33.1416ZM143.46 33.0216V24.2616H144.96V29.0136H146.004L147.612 26.4216H149.292L147.3 29.6136L149.328 33.0216H147.612L146.004 30.2856H144.96V33.0216H143.46ZM157.971 33.0216V31.7016H159.735V25.5816H157.971V24.2616H163.011V25.5816H161.247V31.7016H163.011V33.0216H157.971ZM165.01 33.0216V26.4216H166.474V27.6816H166.882L166.474 28.0296C166.474 27.4856 166.63 27.0616 166.942 26.7576C167.262 26.4536 167.698 26.3016 168.25 26.3016C168.898 26.3016 169.414 26.5176 169.798 26.9496C170.19 27.3816 170.386 27.9616 170.386 28.6896V33.0216H168.886V28.8456C168.886 28.4456 168.782 28.1376 168.574 27.9216C168.366 27.7056 168.074 27.5976 167.698 27.5976C167.33 27.5976 167.038 27.7096 166.822 27.9336C166.614 28.1576 166.51 28.4776 166.51 28.8936V33.0216H165.01Z" fill="black"/>
<path d="M180.954 27.2902C180.125 27.2902 179.454 27.9617 179.454 28.7902C179.454 29.6186 180.125 30.2902 180.954 30.2902L180.954 27.2902ZM197.564 29.8508C198.15 29.265 198.15 28.3153 197.564 27.7295L188.018 18.1836C187.432 17.5978 186.482 17.5978 185.897 18.1836C185.311 18.7693 185.311 19.7191 185.897 20.3049L194.382 28.7902L185.897 37.2754C185.311 37.8612 185.311 38.811 185.897 39.3968C186.482 39.9826 187.432 39.9826 188.018 39.3968L197.564 29.8508ZM180.954 30.2902L196.503 30.2902L196.503 27.2902L180.954 27.2902L180.954 30.2902Z" fill="black"/>
</svg>
