<svg width="153" height="126" viewBox="0 0 153 126" fill="none" xmlns="http://www.w3.org/2000/svg">
<path d="M103 36.5C101.619 36.5 100.5 37.6193 100.5 39C100.5 40.3807 101.619 41.5 103 41.5L103 36.5ZM135.768 40.7678C136.744 39.7915 136.744 38.2085 135.768 37.2322L119.858 21.3223C118.882 20.346 117.299 20.346 116.322 21.3223C115.346 22.2986 115.346 23.8816 116.322 24.8579L130.464 39L116.322 53.1421C115.346 54.1184 115.346 55.7014 116.322 56.6777C117.299 57.654 118.882 57.654 119.858 56.6777L135.768 40.7678ZM103 41.5L134 41.5L134 36.5L103 36.5L103 41.5Z" fill="black"/>
<circle cx="118" cy="35" r="34" fill="#0CAC56" stroke="black" strokeWidth="2"/>
<path d="M115.545 12.8335L115.365 13.0074C114.821 12.4448 114.639 11.7547 114.804 11.1388C114.968 10.5233 115.467 10.0226 116.198 9.81708C116.91 9.61598 117.492 9.88889 117.933 10.3237C119.918 12.2741 121.899 14.232 123.852 16.2194C124.575 16.9556 124.581 18.0429 123.862 18.7839L123.862 18.7839C121.947 20.7575 120.015 22.7193 118.042 24.6396L118.042 24.6396C117.607 25.0627 117.1 25.2747 116.596 25.2723C116.093 25.2699 115.618 25.0531 115.251 24.6623C114.882 24.2703 114.704 23.796 114.743 23.3001C114.781 22.808 115.03 22.3233 115.461 21.8964L115.461 21.8963C115.706 21.654 115.952 21.4166 116.197 21.1801C116.734 20.6615 117.267 20.1472 117.773 19.5948C116.478 19.3695 115.256 19.5734 114.069 19.9393L114.069 19.9394C107.985 21.8135 104.05 25.7985 102.833 32.0408C101.64 38.1665 103.711 43.2608 108.519 47.2734C108.589 47.3315 108.661 47.3859 108.737 47.4442C108.757 47.4592 108.777 47.4744 108.798 47.4899C108.895 47.5642 108.998 47.6452 109.096 47.7366M115.545 12.8335L108.926 47.9194M115.545 12.8335L115.365 13.0074C116.018 13.6825 116.707 14.3284 117.391 14.9692C117.638 15.2012 117.885 15.4325 118.129 15.6643M115.545 12.8335L118.129 15.6643M109.096 47.7366L108.926 47.9194M109.096 47.7366C109.096 47.7365 109.096 47.7365 109.096 47.7364L108.926 47.9194M109.096 47.7366C109.909 48.4933 110.038 49.6215 109.353 50.4287M108.926 47.9194C109.655 48.598 109.749 49.5755 109.162 50.267M109.353 50.4287L109.162 50.267M109.353 50.4287C109.027 50.8135 108.598 51.0435 108.13 51.0869C107.663 51.1303 107.177 50.9859 106.738 50.6581L106.738 50.658C102.163 47.2394 99.4085 42.7198 98.8583 37.0048L98.8583 37.0047C98.1431 29.5483 100.983 23.5944 106.969 19.1873L106.969 19.1873C109.998 16.9579 113.468 15.7615 117.272 15.6648L117.272 15.6648C117.496 15.6593 117.724 15.6612 117.947 15.663C118.008 15.6635 118.069 15.664 118.129 15.6643M109.353 50.4287C109.353 50.4287 109.353 50.4287 109.353 50.4288L109.162 50.267M109.162 50.267L118.129 15.6643M118.136 15.6715C118.136 15.6715 118.136 15.6715 118.136 15.6716C118.113 15.7053 118.09 15.7387 118.067 15.7709L118.271 15.9148V15.8M118.136 15.6715L118.464 15.6385L118.463 15.6394M118.136 15.6715C118.182 15.7143 118.227 15.7571 118.271 15.8M118.136 15.6715C118.138 15.6691 118.14 15.6668 118.141 15.6644C118.185 15.6646 118.228 15.6648 118.271 15.6648V15.8M118.271 15.8C118.278 15.8064 118.285 15.8128 118.291 15.8192L118.463 15.6401M118.463 15.6401H118.464L118.463 15.6394M118.463 15.6401L118.463 15.6394M118.463 15.6401L118.463 15.6394M99.1072 36.9808H99.1072H99.1072Z" fill="black" stroke="black" strokeWidth="0.5"/>
<path d="M118.182 54.359C118.388 54.3478 118.593 54.3372 118.797 54.3285L118.798 54.3284C125.568 54.0226 130.806 50.9728 134.515 45.3738L134.515 45.3738C137.029 41.578 137.948 37.3546 137.431 32.8484C136.783 27.1875 134.076 22.7012 129.526 19.3047L129.526 19.3046C128.96 18.8829 128.323 18.7761 127.654 19.0471C126.919 19.3449 126.525 19.9389 126.515 20.6149C126.504 21.278 126.863 21.9759 127.532 22.5187L127.532 22.5187C132.143 26.2565 134.295 31.0108 133.624 36.9529C132.84 43.9015 126.997 49.7351 120.078 50.4564C119.998 50.4647 119.92 50.4738 119.841 50.4829C119.363 50.5384 118.901 50.5921 118.366 50.4385C118.569 50.2466 118.77 50.0586 118.968 49.8732C119.63 49.254 120.261 48.6641 120.867 48.0556L120.868 48.0554C121.289 47.6318 121.521 47.1354 121.543 46.6373C121.565 46.137 121.374 45.6574 120.991 45.2792L120.991 45.279C120.602 44.8963 120.117 44.7067 119.615 44.7272C119.116 44.7477 118.621 44.9757 118.205 45.3897C116.338 47.2466 114.478 49.1085 112.628 50.9818L112.628 50.9819C112.162 51.4548 111.901 51.9613 111.909 52.4991C111.918 53.0352 112.192 53.5438 112.67 54.0239C114.481 55.8486 116.303 57.6652 118.131 59.4736C118.602 59.9399 119.107 60.2129 119.62 60.2452C120.139 60.278 120.62 60.0604 121.029 59.6397L121.029 59.6396C121.41 59.2461 121.587 58.7634 121.536 58.2547C121.485 57.7522 121.215 57.2531 120.761 56.8057L118.182 54.359ZM118.182 54.359C118.406 54.5705 118.632 54.7817 118.858 54.9933C119.496 55.591 120.136 56.1909 120.76 56.8056L118.182 54.359Z" fill="black" stroke="black" strokeWidth="0.5"/>
<path d="M44.0428 121.722L44.0428 121.722L44.0764 121.756C44.2677 121.952 44.5299 122.062 44.8044 122.062H46.8749C50.1544 122.062 52.8131 119.404 52.8131 116.124V95.5254C52.8131 94.5178 53.6299 93.7009 54.6375 93.7009C55.6049 93.7009 56.4041 94.4559 56.4591 95.4217L57.7249 117.644C57.8661 120.124 59.9181 122.062 62.4017 122.062H64.743C65.2735 122.062 65.737 121.736 65.9285 121.26L65.0008 120.887L65.9285 121.26C66.4814 119.885 67.2909 118.638 68.3096 117.589C69.3282 116.54 70.5359 115.71 71.8629 115.144C73.1898 114.578 74.6109 114.287 76.0454 114.287C77.4798 114.287 78.9009 114.578 80.2278 115.144C81.5548 115.71 82.7625 116.54 83.7811 117.589C84.7998 118.638 85.6094 119.885 86.1622 121.26C86.5027 122.106 86.3039 122.889 85.756 123.506C85.1863 124.149 84.2365 124.598 83.1722 124.598H36.2638C35.8302 124.598 35.4621 124.413 35.2588 124.183C35.078 123.978 35.0294 123.758 35.1357 123.5C35.4105 122.835 35.813 122.231 36.3203 121.722C36.8277 121.214 37.4298 120.81 38.0923 120.535C38.7547 120.26 39.4647 120.118 40.1816 120.118C40.8984 120.118 41.6084 120.26 42.2709 120.535C42.9333 120.81 43.5354 121.214 44.0428 121.722Z" fill="#0CAC56" stroke="black" strokeWidth="2"/>
<path d="M30.8839 121.722L30.8839 121.722L30.9176 121.756C31.1088 121.952 31.3709 122.062 31.6456 122.062H33.716C36.9956 122.062 39.6542 119.404 39.6542 116.124V107.093C39.6542 106.056 40.4949 105.215 41.5319 105.215C42.4995 105.215 43.3087 105.95 43.4011 106.913L44.4402 117.75C44.6747 120.195 46.7291 122.062 49.1858 122.062H51.5842C52.1147 122.062 52.5782 121.736 52.7697 121.26C53.3226 119.885 54.1321 118.638 55.1508 117.589C56.1694 116.54 57.3771 115.71 58.7041 115.144C60.031 114.578 61.4521 114.287 62.8866 114.287C64.321 114.287 65.7421 114.578 67.069 115.144C68.396 115.71 69.6037 116.54 70.6223 117.589L71.3397 116.893M30.8839 121.722L31.592 121.016C30.992 120.415 30.2796 119.937 29.4956 119.612C28.7116 119.286 27.8713 119.118 27.0227 119.118C26.1741 119.118 25.3339 119.286 24.5499 119.612C23.7659 119.937 23.0535 120.415 22.4535 121.016C21.8534 121.618 21.3774 122.332 21.0527 123.118C20.5162 124.417 21.6999 125.598 23.105 125.598L70.0134 125.598C72.6797 125.598 74.9261 123.36 73.9312 120.887C73.3304 119.393 72.4498 118.036 71.3397 116.893M30.8839 121.722C30.3766 121.214 29.7745 120.81 29.112 120.535C28.4496 120.26 27.7396 120.118 27.0227 120.118C26.3059 120.118 25.5959 120.26 24.9334 120.535C24.271 120.81 23.6688 121.214 23.1615 121.722C22.6542 122.231 22.2516 122.835 21.9769 123.5C21.8706 123.758 21.9192 123.978 22.1 124.183C22.3033 124.413 22.6714 124.598 23.105 124.598L70.0134 124.598C71.0777 124.598 72.0275 124.149 72.5972 123.506C73.145 122.889 73.3439 122.106 73.0034 121.26C72.4506 119.885 71.641 118.638 70.6223 117.589L71.3397 116.893M30.8839 121.722L71.3397 116.893" fill="#0CAC56" stroke="black" strokeWidth="2"/>
<path d="M27.7708 71.7538L28.6285 71.6306V70.764V68.1357C28.6285 62.2649 33.3634 57.514 39.1939 57.514H58.4696C62.171 57.514 65.1799 60.5305 65.1799 64.2618V70.7182V71.7182H66.1799H75.5746C78.7006 71.7182 81.243 74.266 81.243 77.419C81.243 84.5811 75.4663 90.3789 68.3506 90.3789H59.4696C58.3651 90.3789 57.4696 91.2744 57.4696 92.3789V98.481C57.4696 103.988 53.034 108.445 47.568 108.457L46.4632 108.409C42.5142 108.236 39.0435 111.408 39.3589 115.475C39.4729 116.945 39.6552 118.437 39.9566 119.583C40.1053 120.149 40.3009 120.702 40.5765 121.136C40.8408 121.552 41.3281 122.079 42.0961 122.079H44.3405C44.8727 122.079 45.3342 121.75 45.5244 121.276C46.074 119.907 46.8788 118.665 47.8913 117.62C48.9037 116.575 50.1039 115.748 51.4225 115.184C52.741 114.621 54.1531 114.331 55.5783 114.331C57.0035 114.331 58.4155 114.621 59.734 115.184C61.0526 115.748 62.2528 116.575 63.2653 117.62C64.2777 118.665 65.0825 119.907 65.6321 121.276C65.6654 121.359 65.6977 121.442 65.729 121.526L65.729 121.526C66.0227 122.31 65.8328 123.031 65.3287 123.598C64.8048 124.188 63.9388 124.598 62.9673 124.598H16.0162C15.59 124.598 15.2278 124.415 15.0275 124.188C14.8494 123.985 14.8008 123.765 14.9066 123.508C15.1796 122.846 15.5797 122.245 16.0837 121.738C16.5877 121.232 17.1858 120.83 17.8437 120.556C18.5015 120.283 19.2064 120.142 19.9182 120.142C20.63 120.142 21.3349 120.283 21.9928 120.556C22.6507 120.83 23.2487 121.232 23.7527 121.738L23.7529 121.738L23.786 121.772L23.7867 121.773C23.9768 121.967 24.2385 122.079 24.5148 122.079H26.986C30.0268 122.079 32.4836 119.603 32.4836 116.559V115.913V114.913H31.4836H11.6097C4.68905 114.289 1 109.181 1 105.583V95.8984C1 91.8106 4.29653 88.505 8.3528 88.505H11.5654C15.9766 88.505 19.5607 92.0997 19.5607 96.5441V98.8038C19.5607 100.217 18.4217 101.355 17.0269 101.355C15.632 101.355 14.493 100.217 14.493 98.8038L14.493 96.2213C14.493 94.7821 13.3307 93.6072 11.8867 93.6072C10.4427 93.6072 9.28037 94.7821 9.28037 96.2213V100.418C9.28037 104.175 12.3125 107.229 16.0631 107.229H20.5607C25.021 107.229 28.6285 103.597 28.6285 99.1267V93.9328C28.6285 91.8923 27.1072 90.4041 25.4302 89.8149C24.2442 89.3981 23.0104 88.6701 22.1636 87.3214C21.3179 85.9745 20.7727 83.8723 21.2302 80.5389L21.2317 80.528L21.233 80.517C21.6967 76.4787 22.9285 74.4039 24.1505 73.2936C25.3777 72.1785 26.7359 71.9026 27.7708 71.7538ZM31.47 116.913C31.2902 119.244 29.3513 121.079 26.986 121.079H24.5148C24.5097 121.079 24.5047 121.077 24.5011 121.073L24.4615 121.033C23.8649 120.433 23.1566 119.958 22.3771 119.633C21.5975 119.309 20.762 119.142 19.9182 119.142C19.0744 119.142 18.2389 119.309 17.4594 119.633C16.6798 119.958 15.9715 120.433 15.3749 121.033C14.7783 121.632 14.305 122.344 13.9821 123.127C13.4488 124.421 14.6227 125.598 16.0162 125.598H62.9673C65.4513 125.598 67.5405 123.511 66.6655 121.175L31.47 116.913Z" fill="#0CAC56" stroke="black" strokeWidth="2"/>
<circle cx="35.7757" cy="91.4672" r="2.8785" fill="#FB8510"/>
<circle cx="29.1963" cy="76.6636" r="3.70093" fill="#FB8510"/>
<circle cx="31.6636" cy="107.916" r="3.70093" fill="#FB8510"/>
<circle cx="5.34583" cy="105.449" r="3.70093" fill="#FB8510"/>
<circle cx="46.4673" cy="102.159" r="3.70093" fill="#FB8510"/>
<rect x="33.0747" y="46" width="17.7383" height="30.8972" rx="8.86916" fill="white" stroke="black" strokeWidth="2"/>
<rect x="38" y="49" width="12.8037" height="21.028" rx="6.40187" fill="black" stroke="black" strokeWidth="2"/>
<rect x="52.813" y="46" width="17.7383" height="30.8972" rx="8.86916" fill="white" stroke="black" strokeWidth="2"/>
<rect x="57.7383" y="49" width="12.8037" height="21.028" rx="6.40187" fill="black" stroke="black" strokeWidth="2"/>
<path d="M39.9306 121.722L39.9306 121.722L39.9642 121.756C40.1555 121.952 40.4178 122.062 40.6922 122.062H42.7627C46.0423 122.062 48.7009 119.404 48.7009 116.124V95.5254C48.7009 94.5178 49.5177 93.7009 50.5254 93.7009C51.4927 93.7009 52.2919 94.4559 52.3469 95.4217L53.6127 117.644C53.754 120.124 55.8059 122.062 58.2895 122.062H60.6308C61.1613 122.062 61.6248 121.736 61.8163 121.26L60.8886 120.887L61.8163 121.26C62.3692 119.885 63.1787 118.638 64.1974 117.589C65.2161 116.54 66.4237 115.71 67.7507 115.144C69.0776 114.578 70.4988 114.287 71.9332 114.287C73.3676 114.287 74.7887 114.578 76.1156 115.144C77.4426 115.71 78.6503 116.54 79.6689 117.589C80.6876 118.638 81.4972 119.885 82.05 121.26C82.3905 122.106 82.1917 122.889 81.6438 123.506C81.0741 124.149 80.1243 124.598 79.06 124.598H32.1516C31.718 124.598 31.3499 124.413 31.1466 124.183C30.9658 123.978 30.9172 123.758 31.0236 123.5C31.2983 122.835 31.7008 122.231 32.2082 121.722C32.7155 121.214 33.3176 120.81 33.9801 120.535C34.6425 120.26 35.3525 120.118 36.0694 120.118C36.7863 120.118 37.4962 120.26 38.1587 120.535C38.8211 120.81 39.4233 121.214 39.9306 121.722Z" fill="#0CAC56" stroke="black" strokeWidth="2"/>
<rect x="76.486" y="74.6074" width="1.64486" height="2.46729" rx="0.82243" fill="black"/>
<rect x="74.0187" y="74.6074" width="1.64486" height="2.46729" rx="0.82243" fill="black"/>
<rect x="46.056" y="91.8785" width="8.2243" height="5.75701" fill="#0CAC56"/>
<circle cx="48.5234" cy="97.6355" r="0.82243" fill="black"/>
<circle cx="52.6355" cy="97.6355" r="0.82243" fill="black"/>
<circle cx="71.1402" cy="118.608" r="2.8785" fill="#FB8510"/>
</svg>
