<svg width="118" height="118" viewBox="0 0 118 118" fill="none" xmlns="http://www.w3.org/2000/svg">
<path d="M59.1188 27.0447C57.509 25.506 55.8483 24.0153 54.2999 22.4152C52.6794 20.7405 53.3265 18.4418 55.49 17.8337C56.4821 17.5537 57.295 17.9191 57.9529 18.5671C61.2288 21.7859 64.4966 25.0153 67.7163 28.2928C68.7539 29.3488 68.7619 30.8875 67.7324 31.9489C64.5715 35.205 61.3865 38.4398 58.1347 41.6052C56.8324 42.8719 55.1851 42.7946 54.1154 41.6559C53.0431 40.5145 53.1367 38.9705 54.4524 37.6664C55.8938 36.2397 57.402 34.877 58.7632 33.3169C56.2681 32.7089 53.9496 33.0689 51.7434 33.749C41.5708 36.8824 34.9549 43.5706 32.9145 54.0377C30.9142 64.31 34.4013 72.865 42.4399 79.5745C42.7475 79.8306 43.0844 80.0519 43.3759 80.3239C44.5793 81.4439 44.7344 83.0573 43.7663 84.1987C42.8197 85.3161 41.3194 85.4894 40.0118 84.5134C32.5454 78.9345 28.0662 71.5769 27.1703 62.2699C26.0044 50.1149 30.6227 40.4265 40.3915 33.2343C45.3227 29.6048 50.9679 27.6581 57.1613 27.5007C57.7069 27.4874 58.2524 27.5007 58.8006 27.5007C58.9076 27.3487 59.0119 27.1967 59.1188 27.0474V27.0447Z" fill="white"/>
<path d="M58.0706 90.9697C59.5895 92.4071 61.1298 93.8178 62.6193 95.2846C64.0233 96.6659 64.1597 98.242 63.0552 99.3807C61.8385 100.634 60.3276 100.554 58.8594 99.1007C55.843 96.1166 52.8372 93.1192 49.8474 90.1084C48.3579 88.6097 48.3338 87.1349 49.7806 85.6682C52.8318 82.5774 55.9018 79.5053 58.9825 76.4412C60.2313 75.1985 61.8706 75.1479 62.9991 76.2599C64.1062 77.3533 64.0634 78.98 62.7932 80.2574C61.3545 81.7001 59.8409 83.0735 58.1882 84.6389C59.6136 85.2735 60.7501 85.0335 61.8251 84.9215C73.4391 83.7108 83.2346 73.9292 84.5504 62.2701C85.6735 52.3124 82.0553 44.3308 74.3457 38.0799C72.2839 36.4078 72.3026 33.9198 74.4419 33.0531C75.402 32.6637 76.3032 32.8104 77.1295 33.4264C84.553 38.9679 88.9574 46.2722 90.0137 55.4965C90.8561 62.8434 89.3585 69.7157 85.267 75.8946C79.2153 85.0282 70.69 89.991 59.651 90.4897C59.2124 90.5084 58.7739 90.5324 58.3353 90.5564C58.2497 90.6951 58.1642 90.8337 58.0759 90.9724L58.0706 90.9697Z" fill="white"/>
</svg>
