<svg width="220" height="68" viewBox="0 0 220 68" fill="none" xmlns="http://www.w3.org/2000/svg">
<circle cx="55" cy="34" r="33.5" fill="#FE94C1" stroke="black"/>
<path d="M59.5976 50.2421V49.7664L60.0728 49.7428C65.987 49.4489 70.7755 44.8085 71.3556 38.9136L71.4 38.4625H71.8532H73.4695C76.7959 38.4625 79.5 35.7407 79.5 32.3738C79.5 29.0069 76.7959 26.285 73.4695 26.285H71.3452H70.9772L70.8678 25.9336C69.3452 21.0426 64.8178 17.5 59.4756 17.5H49.5244C44.1822 17.5 39.6548 21.0426 38.1322 25.9336L38.0228 26.285H37.6548H35.5305C32.2041 26.285 29.5 29.0069 29.5 32.3738C29.5 35.7407 32.2041 38.4625 35.5305 38.4625H37.1468H37.6L37.6444 38.9136C38.2245 44.8085 43.013 49.4489 48.9272 49.7428L49.4024 49.7664V50.2421V64.5H59.5976V50.2421Z" fill="#FB8510" stroke="black"/>
<rect x="43.1597" y="20.1473" width="10.81" height="20.4788" rx="5.40502" fill="white" stroke="black"/>
<rect x="46.2676" y="23.4482" width="4.59423" height="14.0992" rx="2.29712" fill="black" stroke="black"/>
<rect x="54.9697" y="20.1473" width="10.81" height="20.4788" rx="5.40502" fill="white" stroke="black"/>
<path d="M56.6453 42.301C56.6453 46.4582 51.9834 46.4582 51.9834 42.301" stroke="black" stroke-linecap="round"/>
<rect x="57.9858" y="23.5549" width="4.59423" height="14.0992" rx="2.29712" fill="black" stroke="black"/>
<circle cx="92" cy="34" r="33.5" fill="#FE94C1" stroke="black"/>
<path d="M96.5976 48.2421V47.7664L97.0728 47.7428C102.987 47.4489 107.776 42.8085 108.356 36.9136L108.4 36.4625H108.853H110.47C113.796 36.4625 116.5 33.7407 116.5 30.3738C116.5 27.0069 113.796 24.285 110.47 24.285H108.345H107.977L107.868 23.9336C106.345 19.0426 101.818 15.5 96.4756 15.5H86.5244C81.1822 15.5 76.6548 19.0426 75.1322 23.9336L75.0228 24.285H74.6548H72.5305C69.2041 24.285 66.5 27.0069 66.5 30.3738C66.5 33.7407 69.2041 36.4625 72.5305 36.4625H74.1468H74.6L74.6444 36.9136C75.2245 42.8085 80.013 47.4489 85.9272 47.7428L86.4024 47.7664V48.2421V64.5H96.5976V48.2421Z" fill="#68C9FF" stroke="black"/>
<rect x="80.1597" y="18.1473" width="10.81" height="20.4788" rx="5.40502" fill="white" stroke="black"/>
<rect x="83.2676" y="21.4482" width="4.59423" height="14.0992" rx="2.29712" fill="black" stroke="black"/>
<rect x="91.9697" y="18.1473" width="10.81" height="20.4788" rx="5.40502" fill="white" stroke="black"/>
<path d="M93.6453 40.301C93.6453 44.4582 88.9834 44.4582 88.9834 40.301" stroke="black" stroke-linecap="round"/>
<rect x="94.9858" y="21.5549" width="4.59423" height="14.0992" rx="2.29712" fill="black" stroke="black"/>
<circle cx="129" cy="34" r="33.5" fill="#FE94C1" stroke="black"/>
<path d="M133.598 48.2421V47.7664L134.073 47.7428C139.987 47.4489 144.776 42.8085 145.356 36.9136L145.4 36.4625H145.853H147.47C150.796 36.4625 153.5 33.7407 153.5 30.3738C153.5 27.0069 150.796 24.285 147.47 24.285H145.345H144.977L144.868 23.9336C143.345 19.0426 138.818 15.5 133.476 15.5H123.524C118.182 15.5 113.655 19.0426 112.132 23.9336L112.023 24.285H111.655H109.53C106.204 24.285 103.5 27.0069 103.5 30.3738C103.5 33.7407 106.204 36.4625 109.53 36.4625H111.147H111.6L111.644 36.9136C112.224 42.8085 117.013 47.4489 122.927 47.7428L123.402 47.7664V48.2421V64.5H133.598V48.2421Z" fill="#0CAC56" stroke="black"/>
<rect x="117.16" y="18.1473" width="10.81" height="20.4788" rx="5.40502" fill="white" stroke="black"/>
<rect x="120.268" y="21.4482" width="4.59423" height="14.0992" rx="2.29712" fill="black" stroke="black"/>
<rect x="128.97" y="18.1473" width="10.81" height="20.4788" rx="5.40502" fill="white" stroke="black"/>
<path d="M130.645 40.301C130.645 44.4582 125.983 44.4582 125.983 40.301" stroke="black" stroke-linecap="round"/>
<rect x="131.986" y="21.5549" width="4.59423" height="14.0992" rx="2.29712" fill="black" stroke="black"/>
<circle cx="166" cy="34" r="33.5" fill="#FE94C1" stroke="black"/>
<path d="M170.598 48.2421V47.7664L171.073 47.7428C176.987 47.4489 181.776 42.8085 182.356 36.9136L182.4 36.4625H182.853H184.47C187.796 36.4625 190.5 33.7407 190.5 30.3738C190.5 27.0069 187.796 24.285 184.47 24.285H182.345H181.977L181.868 23.9336C180.345 19.0426 175.818 15.5 170.476 15.5H160.524C155.182 15.5 150.655 19.0426 149.132 23.9336L149.023 24.285H148.655H146.53C143.204 24.285 140.5 27.0069 140.5 30.3738C140.5 33.7407 143.204 36.4625 146.53 36.4625H148.147H148.6L148.644 36.9136C149.224 42.8085 154.013 47.4489 159.927 47.7428L160.402 47.7664V48.2421V64.5H170.598V48.2421Z" fill="#FDDE39" stroke="black"/>
<rect x="154.16" y="18.1473" width="10.81" height="20.4788" rx="5.40502" fill="white" stroke="black"/>
<rect x="157.268" y="21.4482" width="4.59423" height="14.0992" rx="2.29712" fill="black" stroke="black"/>
<rect x="165.97" y="18.1473" width="10.81" height="20.4788" rx="5.40502" fill="white" stroke="black"/>
<path d="M167.645 40.301C167.645 44.4582 162.983 44.4582 162.983 40.301" stroke="black" stroke-linecap="round"/>
<rect x="168.986" y="21.5549" width="4.59423" height="14.0992" rx="2.29712" fill="black" stroke="black"/>
</svg>
