<svg width="141" height="58" viewBox="0 0 141 58" fill="none" xmlns="http://www.w3.org/2000/svg">
<circle cx="29" cy="34" r="12" fill="#FE94C1" stroke="black" stroke-width="2"/>
<circle cx="71" cy="25" r="12" fill="#FDDE39" stroke="black" stroke-width="2"/>
<circle cx="113" cy="34" r="12" fill="#5553FE" stroke="black" stroke-width="2"/>
<path d="M112.891 40.16C112.134 40.16 111.472 40.0213 110.907 39.744C110.352 39.4667 109.92 39.0773 109.611 38.576C109.302 38.0747 109.147 37.4827 109.147 36.8H111.163C111.163 37.3227 111.312 37.7333 111.611 38.032C111.92 38.32 112.352 38.464 112.907 38.464C113.462 38.464 113.888 38.3147 114.187 38.016C114.486 37.7173 114.635 37.312 114.635 36.8V35.888C114.635 35.3653 114.486 34.96 114.187 34.672C113.888 34.3733 113.462 34.224 112.907 34.224H111.595V32.416L114.171 30.032H109.675V28.32H116.203V30.128L112.907 33.152V32.512C114.059 32.512 114.971 32.816 115.643 33.424C116.315 34.032 116.651 34.8533 116.651 35.888V36.8C116.651 37.4827 116.496 38.0747 116.187 38.576C115.878 39.0773 115.44 39.4667 114.875 39.744C114.31 40.0213 113.648 40.16 112.891 40.16Z" fill="black"/>
<path d="M25.4671 40V38.064L29.1151 34.4C29.6271 33.8773 30.0058 33.408 30.2511 32.992C30.4965 32.5653 30.6191 32.128 30.6191 31.68C30.6191 31.136 30.4698 30.7147 30.1711 30.416C29.8725 30.1067 29.4671 29.952 28.9551 29.952C28.3898 29.952 27.9471 30.1173 27.6271 30.448C27.3071 30.768 27.1471 31.216 27.1471 31.792H25.1471C25.1578 31.0453 25.3178 30.4053 25.6271 29.872C25.9471 29.328 26.3951 28.9067 26.9711 28.608C27.5471 28.3093 28.2191 28.16 28.9871 28.16C29.7231 28.16 30.3631 28.2987 30.9071 28.576C31.4511 28.8533 31.8725 29.2427 32.1711 29.744C32.4698 30.2453 32.6191 30.8427 32.6191 31.536C32.6191 32.2507 32.4325 32.9493 32.0591 33.632C31.6965 34.304 31.1098 35.0293 30.2991 35.808L27.8671 38.192H32.7631V40H25.4671Z" fill="black"/>
<path d="M67.5471 31V29.24H70.5871V21.096L67.5311 23.368V21.256L70.2191 19.32H72.5871V29.24H75.0351V31H67.5471Z" fill="black"/>
</svg>
