<svg width="170" height="136" viewBox="0 0 170 136" fill="none" xmlns="http://www.w3.org/2000/svg">
<path d="M111.938 12.5C114.632 7.83333 121.368 7.83333 124.062 12.5L155.239 66.5C157.933 71.1667 154.566 77 149.177 77H86.8231C81.4345 77 78.0666 71.1667 80.7609 66.5L111.938 12.5Z" fill="#FDDE39" stroke="black" strokeWidth="2"/>
<path d="M103 46.5C101.619 46.5 100.5 47.6193 100.5 49C100.5 50.3807 101.619 51.5 103 51.5L103 46.5ZM135.768 50.7678C136.744 49.7915 136.744 48.2085 135.768 47.2322L119.858 31.3223C118.882 30.346 117.299 30.346 116.322 31.3223C115.346 32.2986 115.346 33.8816 116.322 34.8579L130.464 49L116.322 63.1421C115.346 64.1184 115.346 65.7014 116.322 66.6777C117.299 67.654 118.882 67.654 119.858 66.6777L135.768 50.7678ZM103 51.5L134 51.5L134 46.5L103 46.5L103 51.5Z" fill="black"/>
<path d="M44.0428 131.722L44.0428 131.722L44.0764 131.756C44.2677 131.952 44.5299 132.062 44.8044 132.062H46.8749C50.1544 132.062 52.8131 129.404 52.8131 126.124V105.525C52.8131 104.518 53.6299 103.701 54.6375 103.701C55.6049 103.701 56.4041 104.456 56.4591 105.422L57.7249 127.644C57.8661 130.124 59.9181 132.062 62.4017 132.062H64.743C65.2735 132.062 65.737 131.736 65.9285 131.26L65.0008 130.887L65.9285 131.26C66.4814 129.885 67.2909 128.638 68.3096 127.589C69.3282 126.54 70.5359 125.71 71.8629 125.144C73.1898 124.578 74.6109 124.287 76.0454 124.287C77.4798 124.287 78.9009 124.578 80.2278 125.144C81.5548 125.71 82.7625 126.54 83.7811 127.589C84.7998 128.638 85.6094 129.885 86.1622 131.26C86.5027 132.106 86.3039 132.889 85.756 133.506C85.1863 134.149 84.2365 134.598 83.1722 134.598H36.2638C35.8302 134.598 35.4621 134.413 35.2588 134.183C35.078 133.978 35.0294 133.758 35.1357 133.5C35.4105 132.835 35.813 132.231 36.3203 131.722C36.8277 131.214 37.4298 130.81 38.0923 130.535C38.7547 130.26 39.4647 130.118 40.1816 130.118C40.8984 130.118 41.6084 130.26 42.2709 130.535C42.9333 130.81 43.5354 131.214 44.0428 131.722Z" fill="#0CAC56" stroke="black" strokeWidth="2"/>
<path d="M30.8839 131.722L30.8839 131.722L30.9176 131.756C31.1088 131.951 31.3709 132.062 31.6456 132.062H33.716C36.9956 132.062 39.6542 129.404 39.6542 126.124V117.093C39.6542 116.056 40.4949 115.215 41.5319 115.215C42.4995 115.215 43.3087 115.95 43.4011 116.913L44.4402 127.75C44.6747 130.195 46.7291 132.062 49.1858 132.062H51.5842C52.1147 132.062 52.5782 131.736 52.7697 131.26C53.3226 129.885 54.1321 128.638 55.1508 127.589C56.1694 126.54 57.3771 125.71 58.7041 125.143C60.031 124.577 61.4521 124.286 62.8866 124.286C64.321 124.286 65.7421 124.577 67.069 125.143C68.396 125.71 69.6037 126.54 70.6223 127.589L71.3397 126.892M30.8839 131.722L31.592 131.016C30.992 130.414 30.2796 129.937 29.4956 129.612C28.7116 129.286 27.8713 129.118 27.0227 129.118C26.1741 129.118 25.3339 129.286 24.5499 129.612C23.7659 129.937 23.0535 130.414 22.4535 131.016C21.8534 131.618 21.3774 132.332 21.0527 133.118C20.5162 134.417 21.6999 135.598 23.105 135.598L70.0134 135.598C72.6797 135.598 74.9261 133.36 73.9312 130.887C73.3304 129.393 72.4498 128.036 71.3397 126.892M30.8839 131.722C30.3766 131.214 29.7745 130.81 29.112 130.535C28.4496 130.26 27.7396 130.118 27.0227 130.118C26.3059 130.118 25.5959 130.26 24.9334 130.535C24.271 130.81 23.6688 131.214 23.1615 131.722C22.6542 132.231 22.2516 132.835 21.9769 133.5C21.8706 133.758 21.9192 133.978 22.1 134.183C22.3033 134.413 22.6714 134.598 23.105 134.598L70.0134 134.598C71.0777 134.598 72.0275 134.149 72.5972 133.506C73.145 132.889 73.3439 132.106 73.0034 131.26C72.4506 129.885 71.641 128.638 70.6223 127.589L71.3397 126.892M30.8839 131.722L71.3397 126.892" fill="#0CAC56" stroke="black" strokeWidth="2"/>
<path d="M27.7708 81.7537L28.6285 81.6304V80.7639V78.1355C28.6285 72.2648 33.3634 67.5139 39.1939 67.5139H58.4696C62.171 67.5139 65.1799 70.5304 65.1799 74.2617V80.7181V81.7181H66.1799H75.5746C78.7006 81.7181 81.243 84.2659 81.243 87.4189C81.243 94.581 75.4663 100.379 68.3506 100.379H59.4696C58.3651 100.379 57.4696 101.274 57.4696 102.379V108.481C57.4696 113.988 53.034 118.445 47.568 118.457L46.4632 118.409C42.5142 118.236 39.0435 121.408 39.3589 125.475C39.4729 126.944 39.6552 128.437 39.9566 129.583C40.1053 130.149 40.3009 130.702 40.5765 131.136C40.8408 131.552 41.3281 132.079 42.0961 132.079H44.3405C44.8727 132.079 45.3342 131.75 45.5244 131.276C46.074 129.907 46.8788 128.665 47.8913 127.62C48.9037 126.575 50.1039 125.748 51.4225 125.184C52.741 124.62 54.1531 124.331 55.5783 124.331C57.0035 124.331 58.4155 124.62 59.734 125.184C61.0526 125.748 62.2528 126.575 63.2653 127.62C64.2777 128.665 65.0825 129.907 65.6321 131.276C65.6654 131.359 65.6977 131.442 65.729 131.526L65.729 131.526C66.0227 132.31 65.8328 133.031 65.3287 133.598C64.8048 134.187 63.9388 134.598 62.9673 134.598H16.0162C15.59 134.598 15.2278 134.415 15.0275 134.187C14.8494 133.985 14.8008 133.765 14.9066 133.508C15.1796 132.846 15.5797 132.244 16.0837 131.738C16.5877 131.232 17.1858 130.83 17.8437 130.556C18.5015 130.282 19.2064 130.142 19.9182 130.142C20.63 130.142 21.3349 130.282 21.9928 130.556C22.6507 130.83 23.2487 131.232 23.7527 131.738L23.7529 131.738L23.786 131.772L23.7867 131.772C23.9768 131.967 24.2385 132.079 24.5148 132.079H26.986C30.0268 132.079 32.4836 129.603 32.4836 126.559V125.913V124.913H31.4836H11.6097C4.68905 124.289 1 119.181 1 115.583V105.898C1 101.81 4.29653 98.5049 8.3528 98.5049H11.5654C15.9766 98.5049 19.5607 102.1 19.5607 106.544V108.804C19.5607 110.217 18.4217 111.355 17.0269 111.355C15.632 111.355 14.493 110.217 14.493 108.804L14.493 106.221C14.493 104.782 13.3307 103.607 11.8867 103.607C10.4427 103.607 9.28037 104.782 9.28037 106.221V110.418C9.28037 114.175 12.3125 117.229 16.0631 117.229H20.5607C25.021 117.229 28.6285 113.597 28.6285 109.127V103.933C28.6285 101.892 27.1072 100.404 25.4302 99.8147C24.2442 99.398 23.0104 98.6699 22.1636 97.3212C21.3179 95.9744 20.7727 93.8722 21.2302 90.5388L21.2317 90.5279L21.233 90.5169C21.6967 86.4786 22.9285 84.4037 24.1505 83.2934C25.3777 82.1784 26.7359 81.9025 27.7708 81.7537ZM31.47 126.913C31.2902 129.244 29.3513 131.079 26.986 131.079H24.5148C24.5097 131.079 24.5047 131.076 24.5011 131.073L24.4615 131.033C23.8649 130.433 23.1566 129.958 22.3771 129.633C21.5975 129.309 20.762 129.142 19.9182 129.142C19.0744 129.142 18.2389 129.309 17.4594 129.633C16.6798 129.958 15.9715 130.433 15.3749 131.033C14.7783 131.632 14.305 132.344 13.9821 133.127C13.4488 134.421 14.6227 135.598 16.0162 135.598H62.9673C65.4513 135.598 67.5405 133.511 66.6655 131.175L31.47 126.913Z" fill="#0CAC56" stroke="black" strokeWidth="2"/>
<circle cx="35.7757" cy="101.467" r="2.8785" fill="#FB8510"/>
<circle cx="29.1963" cy="86.6636" r="3.70093" fill="#FB8510"/>
<circle cx="31.6636" cy="117.916" r="3.70093" fill="#FB8510"/>
<circle cx="5.34583" cy="115.448" r="3.70093" fill="#FB8510"/>
<circle cx="46.4673" cy="112.159" r="3.70093" fill="#FB8510"/>
<rect x="33.0747" y="56" width="17.7383" height="30.8972" rx="8.86916" fill="white" stroke="black" strokeWidth="2"/>
<rect x="38" y="59" width="12.8037" height="21.028" rx="6.40187" fill="black" stroke="black" strokeWidth="2"/>
<rect x="52.813" y="56" width="17.7383" height="30.8972" rx="8.86916" fill="white" stroke="black" strokeWidth="2"/>
<rect x="57.7383" y="59" width="12.8037" height="21.028" rx="6.40187" fill="black" stroke="black" strokeWidth="2"/>
<path d="M39.9306 131.722L39.9306 131.722L39.9642 131.756C40.1555 131.952 40.4178 132.062 40.6922 132.062H42.7627C46.0423 132.062 48.7009 129.404 48.7009 126.124V105.525C48.7009 104.518 49.5177 103.701 50.5254 103.701C51.4927 103.701 52.2919 104.456 52.3469 105.422L53.6127 127.644C53.754 130.124 55.8059 132.062 58.2895 132.062H60.6308C61.1613 132.062 61.6248 131.736 61.8163 131.26L60.8886 130.887L61.8163 131.26C62.3692 129.885 63.1787 128.638 64.1974 127.589C65.2161 126.54 66.4237 125.71 67.7507 125.144C69.0776 124.578 70.4988 124.287 71.9332 124.287C73.3676 124.287 74.7887 124.578 76.1156 125.144C77.4426 125.71 78.6503 126.54 79.6689 127.589C80.6876 128.638 81.4972 129.885 82.05 131.26C82.3905 132.106 82.1917 132.889 81.6438 133.506C81.0741 134.149 80.1243 134.598 79.06 134.598H32.1516C31.718 134.598 31.3499 134.413 31.1466 134.183C30.9658 133.978 30.9172 133.758 31.0236 133.5C31.2983 132.835 31.7008 132.231 32.2082 131.722C32.7155 131.214 33.3176 130.81 33.9801 130.535C34.6425 130.26 35.3525 130.118 36.0694 130.118C36.7863 130.118 37.4962 130.26 38.1587 130.535C38.8211 130.81 39.4233 131.214 39.9306 131.722Z" fill="#0CAC56" stroke="black" strokeWidth="2"/>
<rect x="76.486" y="84.6074" width="1.64486" height="2.46729" rx="0.82243" fill="black"/>
<rect x="74.0187" y="84.6074" width="1.64486" height="2.46729" rx="0.82243" fill="black"/>
<rect x="46.056" y="101.878" width="8.2243" height="5.75701" fill="#0CAC56"/>
<circle cx="48.5234" cy="107.635" r="0.82243" fill="black"/>
<circle cx="52.6355" cy="107.635" r="0.82243" fill="black"/>
<circle cx="71.1402" cy="128.608" r="2.8785" fill="#FB8510"/>
</svg>
