<?xml version="1.0" encoding="UTF-8"?>
<svg id="Layer_1" xmlns="http://www.w3.org/2000/svg" version="1.1" viewBox="0 0 170 136">
  <!-- Generator: Adobe Illustrator 29.2.1, SVG Export Plug-In . SVG Version: 2.1.0 Build 116)  -->
  <defs>
    <style>
      .st0 {
        fill: #fb8510;
      }

      .st1, .st2 {
        fill: #0cac56;
      }

      .st2, .st3, .st4, .st5 {
        stroke: #000;
      }

      .st3 {
        fill: #fff;
      }

      .st5 {
        fill: #fdde39;
      }
    </style>
  </defs>
  <path class="st5" d="M111.9,12.5c2.7-4.7,9.4-4.7,12.1,0l31.2,54c2.7,4.7-.7,10.5-6.1,10.5h-62.4c-5.4,0-8.8-5.8-6.1-10.5l31.2-54h.1Z"/>
  <path d="M103,46.5c-1.4,0-2.5,1.1-2.5,2.5s1.1,2.5,2.5,2.5v-5ZM135.8,50.8c1-1,1-2.6,0-3.5l-15.9-15.9c-1-1-2.6-1-3.5,0-1,1-1,2.6,0,3.5l14.1,14.1-14.1,14.1c-1,1-1,2.6,0,3.5,1,1,2.6,1,3.5,0l15.9-15.9h0ZM103,51.5h31v-5h-31v5Z"/>
  <path class="st2" d="M44,131.7h0c.2.2.5.3.7.3h2.1c3.3,0,5.9-2.7,5.9-5.9v-20.6c0-1,.8-1.8,1.8-1.8s1.8.8,1.8,1.7l1.3,22.2c0,2.5,2.2,4.4,4.7,4.4h2.3c.5,0,1-.3,1.2-.8l-.9-.4.9.4c.6-1.4,1.4-2.6,2.4-3.7,1-1,2.2-1.9,3.6-2.4,1.3-.6,2.7-.9,4.2-.9s2.9.3,4.2.9c1.3.6,2.5,1.4,3.6,2.4,1,1,1.8,2.3,2.4,3.7.3.8,0,1.6-.4,2.2-.6.6-1.5,1.1-2.6,1.1h-46.9c-.4,0-.8-.2-1-.4s-.2-.4,0-.7c.3-.7.7-1.3,1.2-1.8s1.1-.9,1.8-1.2,1.4-.4,2.1-.4,1.4.1,2.1.4c.7.3,1.3.7,1.8,1.2h-.2Z"/>
  <path class="st2" d="M30.9,131.7h0c.2.2.5.3.7.3h2.1c3.3,0,5.9-2.7,5.9-5.9v-9c0-1,.8-1.9,1.9-1.9s1.8.7,1.9,1.7l1,10.8c.2,2.4,2.3,4.3,4.7,4.3h2.4c.5,0,1-.3,1.2-.8.6-1.4,1.4-2.6,2.4-3.7,1-1,2.2-1.9,3.6-2.4,1.3-.6,2.7-.9,4.2-.9s2.9.3,4.2.9c1.3.6,2.3,1.5,3.4,2.5M30.9,131.7c-.5-.5-1.1-.9-1.8-1.2-.7-.3-1.4-.4-2.1-.4s-1.4.1-2.1.4c-.7.3-1.3.7-1.8,1.2s-.9,1.1-1.2,1.8c-.1.3,0,.5.1.7.2.2.6.4,1,.4h46.9c1.1,0,2-.4,2.6-1.1.5-.6.7-1.4.4-2.2-.6-1.4-1.4-2.6-2.4-3.7"/>
  <path class="st2" d="M27.8,81.8h.9v-3.6c0-5.9,4.7-10.6,10.6-10.6h19.3c3.7,0,6.7,3,6.7,6.7v7.5h10.4c3.1,0,5.7,2.5,5.7,5.7,0,7.2-5.8,13-12.9,13h-8.9c-1.1,0-2,.9-2,2v6.1c0,5.5-4.4,10-9.9,10h-1.1c-3.9-.2-7.4,3-7.1,7,0,1.5.3,3,.6,4.1,0,.6.3,1.1.6,1.6.3.4.8.9,1.5.9h2.2c.5,0,1-.3,1.2-.8.5-1.4,1.4-2.6,2.4-3.7,1-1,2.2-1.9,3.5-2.4,1.3-.6,2.7-.9,4.2-.9s2.8.3,4.2.9c1.3.6,2.5,1.4,3.5,2.4s1.8,2.3,2.4,3.7v.2h0c.3.8,0,1.5-.4,2.1s-1.4,1-2.4,1H16c-.4,0-.8-.2-1-.4s-.2-.4-.1-.7c.3-.7.7-1.3,1.2-1.8.5-.5,1.1-.9,1.8-1.2.7-.3,1.4-.4,2.1-.4s1.4.1,2.1.4,1.3.7,1.8,1.2h0c.2.2.5.3.7.3h2.5c3,0,5.5-2.5,5.5-5.5v-1.6H11.6c-6.9-.6-10.6-5.7-10.6-9.3v-9.7c0-4.1,3.3-7.4,7.4-7.4h3.2c4.4,0,8,3.6,8,8v2.3c0,1.4-1.1,2.6-2.5,2.6s-2.5-1.1-2.5-2.6v-2.6c0-1.4-1.2-2.6-2.6-2.6s-2.6,1.2-2.6,2.6v4.2c0,3.8,3,6.8,6.8,6.8h4.5c4.5,0,8.1-3.6,8.1-8.1v-5.2c0-2-1.5-3.5-3.2-4.1-1.2-.4-2.4-1.1-3.3-2.5-.8-1.3-1.4-3.4-.9-6.8h0c.5-4,1.7-6.1,2.9-7.2,1.2-1.1,2.6-1.4,3.6-1.5h0Z"/>
  <circle class="st0" cx="35.8" cy="101.5" r="2.9"/>
  <circle class="st0" cx="29.2" cy="86.7" r="3.7"/>
  <circle class="st0" cx="31.7" cy="117.9" r="3.7"/>
  <circle class="st0" cx="5.3" cy="115.4" r="3.7"/>
  <circle class="st0" cx="46.5" cy="112.2" r="3.7"/>
  <path class="st3" d="M41.9,56h0c4.9,0,8.9,4,8.9,8.9v13.2c0,4.9-4,8.9-8.9,8.9h0c-4.9,0-8.9-4-8.9-8.9v-13.2c0-4.9,4-8.9,8.9-8.9Z"/>
  <path class="st4" d="M44.4,59h0c3.5,0,6.4,2.9,6.4,6.4v8.2c0,3.5-2.9,6.4-6.4,6.4h0c-3.5,0-6.4-2.9-6.4-6.4v-8.2c0-3.5,2.9-6.4,6.4-6.4Z"/>
  <path class="st3" d="M61.7,56h0c4.9,0,8.9,4,8.9,8.9v13.2c0,4.9-4,8.9-8.9,8.9h0c-4.9,0-8.9-4-8.9-8.9v-13.2c0-4.9,4-8.9,8.9-8.9Z"/>
  <path class="st4" d="M64.1,59h0c3.5,0,6.4,2.9,6.4,6.4v8.2c0,3.5-2.9,6.4-6.4,6.4h0c-3.5,0-6.4-2.9-6.4-6.4v-8.2c0-3.5,2.9-6.4,6.4-6.4Z"/>
  <path class="st2" d="M39.9,131.7h0c.2.2.5.3.7.3h2.1c3.3,0,5.9-2.7,5.9-5.9v-20.6c0-1,.8-1.8,1.8-1.8s1.8.8,1.8,1.7l1.3,22.2c0,2.5,2.2,4.4,4.7,4.4h2.3c.5,0,1-.3,1.2-.8h0c.6-1.4,1.4-2.6,2.4-3.7,1-1,2.2-1.9,3.6-2.4,1.3-.6,2.7-.9,4.2-.9s2.9.3,4.2.9c1.3.6,2.5,1.4,3.6,2.4,1,1,1.8,2.3,2.4,3.7.3.8,0,1.6-.4,2.2-.6.6-1.5,1.1-2.6,1.1h-46.9c-.4,0-.8-.2-1-.4s-.2-.4-.1-.7c.3-.7.7-1.3,1.2-1.8.5-.5,1.1-.9,1.8-1.2s1.4-.4,2.1-.4,1.4.1,2.1.4c.7.3,1.6,1.3,1.6,1.3Z"/>
  <path d="M77.3,84.6h0c.5,0,.8.4.8.8v.8c0,.5-.4.8-.8.8h0c-.5,0-.8-.4-.8-.8v-.8c0-.5.4-.8.8-.8Z"/>
  <path d="M74.8,84.6h0c.5,0,.8.4.8.8v.8c0,.5-.4.8-.8.8h0c-.5,0-.8-.4-.8-.8v-.8c0-.5.4-.8.8-.8Z"/>
  <rect class="st1" x="46.1" y="101.9" width="8.2" height="5.8"/>
  <circle cx="48.6" cy="107.7" r=".5"/>
  <circle cx="52.3" cy="107.7" r=".5"/>
  <circle class="st0" cx="71.1" cy="128.6" r="2.9"/>
</svg>