<svg width="104" height="104" viewBox="0 0 104 104" fill="none" xmlns="http://www.w3.org/2000/svg">
<path d="M45.9378 12.5C48.6321 7.83333 55.3679 7.83333 58.0622 12.5L89.2391 66.5C91.9334 71.1667 88.5655 77 83.1769 77H20.8231C15.4345 77 12.0666 71.1667 14.7609 66.5L45.9378 12.5Z" fill="#FDDE39" stroke="black" strokeWidth="2"/>
<path d="M41 47.5C40.1716 47.5 39.5 48.1716 39.5 49C39.5 49.8284 40.1716 50.5 41 50.5L41 47.5ZM64.0607 50.0607C64.6464 49.4749 64.6464 48.5251 64.0607 47.9393L54.5147 38.3934C53.9289 37.8076 52.9792 37.8076 52.3934 38.3934C51.8076 38.9792 51.8076 39.9289 52.3934 40.5147L60.8787 49L52.3934 57.4853C51.8076 58.0711 51.8076 59.0208 52.3934 59.6066C52.9792 60.1924 53.9289 60.1924 54.5147 59.6066L64.0607 50.0607ZM41 50.5L63 50.5L63 47.5L41 47.5L41 50.5Z" fill="black"/>
</svg>
