<svg width="133" height="127" viewBox="0 0 133 127" fill="none" xmlns="http://www.w3.org/2000/svg">
<path d="M22 37.5C20.6193 37.5 19.5 38.6193 19.5 40C19.5 41.3807 20.6193 42.5 22 42.5L22 37.5ZM54.7678 41.7678C55.7441 40.7915 55.7441 39.2085 54.7678 38.2322L38.8579 22.3223C37.8816 21.346 36.2986 21.346 35.3223 22.3223C34.346 23.2986 34.346 24.8816 35.3223 25.8579L49.4645 40L35.3223 54.1421C34.346 55.1184 34.346 56.7014 35.3223 57.6777C36.2986 58.654 37.8816 58.654 38.8579 57.6777L54.7678 41.7678ZM22 42.5L53 42.5L53 37.5L22 37.5L22 42.5Z" fill="black"/>
<path d="M33.5 3.17543C35.6658 1.925 38.3342 1.925 40.5 3.17543L64.5429 17.0566C66.7087 18.3071 68.0429 20.6179 68.0429 23.1188V50.8812C68.0429 53.3821 66.7087 55.6929 64.5429 56.9434L40.5 70.8246C38.3342 72.075 35.6658 72.075 33.5 70.8246L9.45706 56.9434C7.29125 55.6929 5.95706 53.3821 5.95706 50.8812V23.1188C5.95706 20.6179 7.29125 18.3071 9.45706 17.0566L33.5 3.17543Z" fill="#FC5555" stroke="black" stroke-width="2"/>
<path d="M22.7693 22.7693L51.073 51.073" stroke="black" stroke-width="6" stroke-linecap="round"/>
<path d="M51.073 22.7693L22.7693 51.073" stroke="black" stroke-width="6" stroke-linecap="round"/>
<path d="M89.0428 122.722L89.0428 122.722L89.0764 122.756C89.2677 122.952 89.5299 123.062 89.8044 123.062H91.8749C95.1544 123.062 97.8131 120.404 97.8131 117.124V96.5254C97.8131 95.5178 98.6299 94.7009 99.6375 94.7009C100.605 94.7009 101.404 95.4559 101.459 96.4217L102.725 118.644C102.866 121.124 104.918 123.062 107.402 123.062H109.743C110.274 123.062 110.737 122.736 110.929 122.26L110.001 121.887L110.929 122.26C111.481 120.885 112.291 119.638 113.31 118.589C114.328 117.54 115.536 116.71 116.863 116.144C118.19 115.578 119.611 115.287 121.045 115.287C122.48 115.287 123.901 115.578 125.228 116.144C126.555 116.71 127.762 117.54 128.781 118.589C129.8 119.638 130.609 120.885 131.162 122.26C131.503 123.106 131.304 123.889 130.756 124.506C130.186 125.149 129.236 125.598 128.172 125.598H81.2638C80.8302 125.598 80.4621 125.413 80.2588 125.183C80.078 124.978 80.0294 124.758 80.1357 124.5C80.4105 123.835 80.813 123.231 81.3203 122.722C81.8277 122.214 82.4298 121.81 83.0923 121.535C83.7547 121.26 84.4647 121.118 85.1816 121.118C85.8984 121.118 86.6084 121.26 87.2709 121.535C87.9333 121.81 88.5354 122.214 89.0428 122.722Z" fill="#0CAC56" stroke="black" stroke-width="2"/>
<path d="M75.8839 122.722L75.8839 122.722L75.9176 122.756C76.1088 122.952 76.3709 123.062 76.6456 123.062H78.716C81.9956 123.062 84.6542 120.404 84.6542 117.124V108.093C84.6542 107.056 85.4949 106.215 86.5319 106.215C87.4995 106.215 88.3087 106.95 88.4011 107.913L89.4402 118.75C89.6747 121.195 91.7291 123.062 94.1858 123.062H96.5842C97.1147 123.062 97.5782 122.736 97.7697 122.26C98.3226 120.885 99.1321 119.638 100.151 118.589C101.169 117.54 102.377 116.71 103.704 116.144C105.031 115.578 106.452 115.287 107.887 115.287C109.321 115.287 110.742 115.578 112.069 116.144C113.396 116.71 114.604 117.54 115.622 118.589L116.34 117.893M75.8839 122.722L76.592 122.016C75.992 121.415 75.2796 120.937 74.4956 120.612C73.7116 120.286 72.8713 120.118 72.0227 120.118C71.1741 120.118 70.3339 120.286 69.5499 120.612C68.7659 120.937 68.0535 121.415 67.4535 122.016C66.8534 122.618 66.3774 123.332 66.0527 124.118C65.5162 125.417 66.6999 126.598 68.105 126.598L115.013 126.598C117.68 126.598 119.926 124.36 118.931 121.887C118.33 120.393 117.45 119.036 116.34 117.893M75.8839 122.722C75.3766 122.214 74.7745 121.81 74.112 121.535C73.4496 121.26 72.7396 121.118 72.0227 121.118C71.3059 121.118 70.5959 121.26 69.9334 121.535C69.271 121.81 68.6688 122.214 68.1615 122.722C67.6542 123.231 67.2516 123.835 66.9769 124.5C66.8706 124.758 66.9192 124.978 67.1 125.183C67.3033 125.413 67.6714 125.598 68.105 125.598L115.013 125.598C116.078 125.598 117.027 125.149 117.597 124.506C118.145 123.889 118.344 123.106 118.003 122.26C117.451 120.885 116.641 119.638 115.622 118.589L116.34 117.893M75.8839 122.722L116.34 117.893" fill="#0CAC56" stroke="black" stroke-width="2"/>
<path d="M72.7708 72.7538L73.6285 72.6306V71.764V69.1357C73.6285 63.2649 78.3634 58.514 84.1939 58.514H103.47C107.171 58.514 110.18 61.5305 110.18 65.2618V71.7182V72.7182H111.18H120.575C123.701 72.7182 126.243 75.266 126.243 78.419C126.243 85.5811 120.466 91.3789 113.351 91.3789H104.47C103.365 91.3789 102.47 92.2744 102.47 93.3789V99.481C102.47 104.988 98.034 109.445 92.568 109.457L91.4632 109.409C87.5142 109.236 84.0435 112.408 84.3589 116.475C84.4729 117.945 84.6552 119.437 84.9566 120.583C85.1053 121.149 85.3009 121.702 85.5765 122.136C85.8408 122.552 86.3281 123.079 87.0961 123.079H89.3405C89.8727 123.079 90.3342 122.75 90.5244 122.276C91.074 120.907 91.8788 119.665 92.8913 118.62C93.9037 117.575 95.1039 116.748 96.4225 116.184C97.741 115.621 99.1531 115.331 100.578 115.331C102.003 115.331 103.416 115.621 104.734 116.184C106.053 116.748 107.253 117.575 108.265 118.62C109.278 119.665 110.082 120.907 110.632 122.276C110.665 122.359 110.698 122.442 110.729 122.526L110.729 122.526C111.023 123.31 110.833 124.031 110.329 124.598C109.805 125.188 108.939 125.598 107.967 125.598H61.0162C60.59 125.598 60.2278 125.415 60.0275 125.188C59.8494 124.985 59.8008 124.765 59.9066 124.508C60.1796 123.846 60.5797 123.245 61.0837 122.738C61.5877 122.232 62.1858 121.83 62.8437 121.556C63.5015 121.283 64.2064 121.142 64.9182 121.142C65.63 121.142 66.3349 121.283 66.9928 121.556C67.6507 121.83 68.2487 122.232 68.7527 122.738L68.7529 122.738L68.786 122.772L68.7867 122.773C68.9768 122.967 69.2385 123.079 69.5148 123.079H71.986C75.0268 123.079 77.4836 120.603 77.4836 117.559V116.913V115.913H76.4836H56.6097C49.689 115.289 46 110.181 46 106.583V96.8984C46 92.8106 49.2965 89.505 53.3528 89.505H56.5654C60.9766 89.505 64.5607 93.0997 64.5607 97.5441V99.8038C64.5607 101.217 63.4217 102.355 62.0269 102.355C60.632 102.355 59.493 101.217 59.493 99.8038L59.493 97.2213C59.493 95.7821 58.3307 94.6072 56.8867 94.6072C55.4427 94.6072 54.2804 95.7821 54.2804 97.2213V101.418C54.2804 105.175 57.3125 108.229 61.0631 108.229H65.5607C70.021 108.229 73.6285 104.597 73.6285 100.127V94.9328C73.6285 92.8923 72.1072 91.4041 70.4302 90.8149C69.2442 90.3981 68.0104 89.6701 67.1636 88.3214C66.3179 86.9745 65.7727 84.8723 66.2302 81.5389L66.2317 81.528L66.233 81.517C66.6967 77.4787 67.9285 75.4039 69.1505 74.2936C70.3777 73.1785 71.7359 72.9026 72.7708 72.7538ZM76.47 117.913C76.2902 120.244 74.3513 122.079 71.986 122.079H69.5148C69.5097 122.079 69.5047 122.077 69.5011 122.073L69.4615 122.033C68.8649 121.433 68.1566 120.958 67.3771 120.633C66.5975 120.309 65.762 120.142 64.9182 120.142C64.0744 120.142 63.2389 120.309 62.4594 120.633C61.6798 120.958 60.9715 121.433 60.3749 122.033C59.7783 122.632 59.305 123.344 58.9821 124.127C58.4488 125.421 59.6227 126.598 61.0162 126.598H107.967C110.451 126.598 112.54 124.511 111.665 122.175L76.47 117.913Z" fill="#0CAC56" stroke="black" stroke-width="2"/>
<circle cx="80.7757" cy="92.4672" r="2.8785" fill="#FB8510"/>
<circle cx="74.1963" cy="77.6636" r="3.70093" fill="#FB8510"/>
<circle cx="76.6636" cy="108.916" r="3.70093" fill="#FB8510"/>
<circle cx="50.3458" cy="106.449" r="3.70093" fill="#FB8510"/>
<circle cx="91.4673" cy="103.159" r="3.70093" fill="#FB8510"/>
<rect x="78.0747" y="47" width="17.7383" height="30.8972" rx="8.86916" fill="white" stroke="black" stroke-width="2"/>
<rect x="78" y="49" width="12.8037" height="21.028" rx="6.40187" fill="black" stroke="black" stroke-width="2"/>
<rect x="97.813" y="47" width="17.7383" height="30.8972" rx="8.86916" fill="white" stroke="black" stroke-width="2"/>
<rect x="97.7383" y="49" width="12.8037" height="21.028" rx="6.40187" fill="black" stroke="black" stroke-width="2"/>
<path d="M84.9306 122.722L84.9306 122.722L84.9642 122.756C85.1555 122.952 85.4178 123.062 85.6922 123.062H87.7627C91.0423 123.062 93.7009 120.404 93.7009 117.124V96.5254C93.7009 95.5178 94.5177 94.7009 95.5254 94.7009C96.4927 94.7009 97.2919 95.4559 97.3469 96.4217L98.6127 118.644C98.754 121.124 100.806 123.062 103.29 123.062H105.631C106.161 123.062 106.625 122.736 106.816 122.26L105.889 121.887L106.816 122.26C107.369 120.885 108.179 119.638 109.197 118.589C110.216 117.54 111.424 116.71 112.751 116.144C114.078 115.578 115.499 115.287 116.933 115.287C118.368 115.287 119.789 115.578 121.116 116.144C122.443 116.71 123.65 117.54 124.669 118.589C125.688 119.638 126.497 120.885 127.05 122.26C127.39 123.106 127.192 123.889 126.644 124.506C126.074 125.149 125.124 125.598 124.06 125.598H77.1516C76.718 125.598 76.3499 125.413 76.1466 125.183C75.9658 124.978 75.9172 124.758 76.0236 124.5C76.2983 123.835 76.7008 123.231 77.2082 122.722C77.7155 122.214 78.3176 121.81 78.9801 121.535C79.6425 121.26 80.3525 121.118 81.0694 121.118C81.7863 121.118 82.4962 121.26 83.1587 121.535C83.8211 121.81 84.4233 122.214 84.9306 122.722Z" fill="#0CAC56" stroke="black" stroke-width="2"/>
<rect x="121.486" y="75.6074" width="1.64486" height="2.46729" rx="0.82243" fill="black"/>
<rect x="119.019" y="75.6074" width="1.64486" height="2.46729" rx="0.82243" fill="black"/>
<rect x="91.056" y="92.8785" width="8.2243" height="5.75701" fill="#0CAC56"/>
<circle cx="93.5234" cy="98.6355" r="0.82243" fill="black"/>
<circle cx="97.6355" cy="98.6355" r="0.82243" fill="black"/>
<circle cx="116.14" cy="119.608" r="2.8785" fill="#FB8510"/>
</svg>
