<svg width="75" height="73" viewBox="0 0 75 73" fill="none" xmlns="http://www.w3.org/2000/svg">
<circle cx="37" cy="36" r="16" fill="#FE94C1" stroke="black" strokeWidth="2"/>
<circle cx="8.5" cy="36.5" r="7.5" fill="#FDDE39" stroke="black" strokeWidth="2"/>
<circle cx="8.5" cy="8.5" r="7.5" transform="matrix(-1 0 0 1 75 28)" fill="#DB9EFD" stroke="black" strokeWidth="2"/>
<path d="M30 9C30 4.5271 33.4109 1 37.5 1C41.5891 1 45 4.5271 45 9C45 13.4729 41.5891 17 37.5 17C33.4109 17 30 13.4729 30 9Z" fill="#0CAC56" stroke="black" strokeWidth="2"/>
<circle cx="57" cy="16" r="8" transform="rotate(180 57 16)" fill="#FDDE39" stroke="black" strokeWidth="2"/>
<circle cx="9" cy="9" r="8" transform="matrix(1 -2.3597e-08 -2.3597e-08 -1 9 25)" fill="#DB9EFD" stroke="black" strokeWidth="2"/>
</svg>
